<?xml version="1.0" encoding="utf-8" standalone="no"?>
<!DOCTYPE svg PUBLIC "-//W3C//DTD SVG 1.1//EN"
  "http://www.w3.org/Graphics/SVG/1.1/DTD/svg11.dtd">
<svg height="345.6pt" version="1.1" viewBox="0 0 460.8 345.6" width="460.8pt" xmlns="http://www.w3.org/2000/svg" xmlns:xlink="http://www.w3.org/1999/xlink">
 <metadata>
  <rdf:RDF xmlns:cc="http://creativecommons.org/ns#" xmlns:dc="http://purl.org/dc/elements/1.1/" xmlns:rdf="http://www.w3.org/1999/02/22-rdf-syntax-ns#">
   <cc:Work>
    <dc:type rdf:resource="http://purl.org/dc/dcmitype/StillImage"/>
    <dc:date>2021-06-18T21:49:10.703915</dc:date>
    <dc:format>image/svg+xml</dc:format>
    <dc:creator>
     <cc:Agent>
      <dc:title>Matplotlib v3.4.2, https://matplotlib.org/</dc:title>
     </cc:Agent>
    </dc:creator>
   </cc:Work>
  </rdf:RDF>
 </metadata>
 <defs>
  <style type="text/css">*{stroke-linecap:butt;stroke-linejoin:round;}</style>
 </defs>
 <g id="figure_1">
  <g id="patch_1">
   <path d="M 0 345.6 
L 460.8 345.6 
L 460.8 0 
L 0 0 
z
" style="fill:#ffffff;"/>
  </g>
  <g id="axes_1">
   <g id="patch_2">
    <path d="M 57.6 307.584 
L 414.72 307.584 
L 414.72 41.472 
L 57.6 41.472 
z
" style="fill:#ffffff;"/>
   </g>
   <g id="PolyCollection_1">
    <defs>
     <path d="M 73.832727 -109.881052 
L 73.832727 -85.252287 
L 74.373818 -76.184355 
L 74.914909 -72.105472 
L 75.456 -72.042681 
L 75.997091 -69.520196 
L 76.538182 -70.866164 
L 77.079273 -67.113771 
L 77.620364 -67.956809 
L 78.161455 -66.387035 
L 78.702545 -67.095331 
L 79.243636 -65.353575 
L 79.784727 -64.917774 
L 80.325818 -65.833365 
L 80.866909 -64.195135 
L 81.408 -63.620014 
L 81.949091 -64.778573 
L 82.490182 -62.432891 
L 83.031273 -62.236322 
L 83.572364 -61.131153 
L 84.113455 -62.781435 
L 84.654545 -62.700566 
L 85.195636 -61.61938 
L 85.736727 -60.843351 
L 86.277818 -61.96696 
L 86.818909 -60.675466 
L 87.36 -61.286262 
L 87.901091 -58.188052 
L 88.442182 -60.182419 
L 88.983273 -58.663624 
L 89.524364 -59.923903 
L 90.065455 -57.64993 
L 90.606545 -60.909155 
L 91.147636 -58.918524 
L 91.688727 -59.651889 
L 92.229818 -60.529637 
L 92.770909 -59.110754 
L 93.312 -59.537998 
L 93.853091 -59.706123 
L 94.394182 -58.121886 
L 94.935273 -61.349174 
L 95.476364 -60.53024 
L 96.017455 -59.802298 
L 96.558545 -58.848382 
L 97.099636 -60.756697 
L 97.640727 -58.58842 
L 98.181818 -60.900477 
L 98.722909 -59.031934 
L 99.264 -60.313545 
L 99.805091 -57.675239 
L 100.346182 -57.126993 
L 100.887273 -57.459508 
L 101.428364 -57.285959 
L 101.969455 -55.807298 
L 102.510545 -58.981918 
L 103.051636 -56.265274 
L 103.592727 -58.029327 
L 104.133818 -58.380161 
L 104.674909 -58.549612 
L 105.216 -58.64398 
L 105.757091 -60.23593 
L 106.298182 -58.998068 
L 106.839273 -60.482875 
L 107.380364 -58.106821 
L 107.921455 -61.673855 
L 108.462545 -61.914413 
L 109.003636 -61.736043 
L 109.544727 -58.920573 
L 110.085818 -60.955314 
L 110.626909 -62.131108 
L 111.168 -62.19414 
L 111.709091 -61.317236 
L 112.250182 -62.585831 
L 112.791273 -61.767981 
L 113.332364 -61.534052 
L 113.873455 -59.608502 
L 114.414545 -63.990372 
L 114.955636 -61.849814 
L 115.496727 -64.855224 
L 116.037818 -61.340737 
L 116.578909 -64.2425 
L 117.12 -63.801396 
L 117.661091 -63.934933 
L 118.202182 -65.427212 
L 118.743273 -65.500609 
L 119.284364 -66.903825 
L 119.825455 -66.257837 
L 120.366545 -64.510296 
L 120.907636 -66.156239 
L 121.448727 -66.517799 
L 121.989818 -64.050029 
L 122.530909 -66.797767 
L 123.072 -67.431221 
L 123.613091 -67.049172 
L 124.154182 -64.501618 
L 124.695273 -65.499886 
L 125.236364 -65.293797 
L 125.777455 -65.235224 
L 126.318545 -66.059822 
L 126.859636 -66.225417 
L 127.400727 -65.668253 
L 127.941818 -63.492865 
L 128.482909 -64.320597 
L 129.024 -66.0685 
L 129.565091 -64.23322 
L 130.106182 -68.485772 
L 130.647273 -68.117101 
L 131.188364 -65.187377 
L 131.729455 -66.779086 
L 132.270545 -68.582308 
L 132.811636 -67.687687 
L 133.352727 -66.998192 
L 133.893818 -67.709502 
L 134.434909 -68.448049 
L 134.976 -69.473434 
L 135.517091 -70.693097 
L 136.058182 -70.880988 
L 136.599273 -72.557182 
L 137.140364 -73.675849 
L 137.681455 -73.845783 
L 138.222545 -75.125465 
L 138.763636 -77.222515 
L 139.304727 -76.685598 
L 139.845818 -77.35123 
L 140.386909 -79.891432 
L 140.928 -79.129745 
L 141.469091 -81.988362 
L 142.010182 -81.803243 
L 142.551273 -84.3978 
L 143.092364 -83.152465 
L 143.633455 -77.261322 
L 144.174545 -83.791101 
L 144.715636 -84.670537 
L 145.256727 -81.463979 
L 145.797818 -82.880813 
L 146.338909 -87.107453 
L 146.88 -87.776942 
L 147.421091 -81.824454 
L 147.962182 -89.566063 
L 148.503273 -84.309699 
L 149.044364 -86.988018 
L 149.585455 -88.906818 
L 150.126545 -91.490287 
L 150.667636 -91.887521 
L 151.208727 -84.818294 
L 151.749818 -92.375628 
L 152.290909 -92.94159 
L 152.832 -93.66001 
L 153.373091 -93.616021 
L 153.914182 -93.675437 
L 154.455273 -97.540637 
L 154.996364 -96.080777 
L 155.537455 -97.37673 
L 156.078545 -99.650583 
L 156.619636 -98.239051 
L 157.160727 -100.668977 
L 157.701818 -103.790448 
L 158.242909 -105.06543 
L 158.784 -107.044129 
L 159.325091 -107.190802 
L 159.866182 -107.690238 
L 160.407273 -109.8737 
L 160.948364 -109.624103 
L 161.489455 -110.913548 
L 162.030545 -112.145745 
L 162.571636 -113.102554 
L 163.112727 -111.848663 
L 163.653818 -114.427432 
L 164.194909 -114.163011 
L 164.736 -115.247692 
L 165.277091 -115.267939 
L 165.818182 -115.757974 
L 166.359273 -119.71031 
L 166.900364 -117.516844 
L 167.441455 -120.023783 
L 167.982545 -120.582996 
L 168.523636 -121.387588 
L 169.064727 -123.035218 
L 169.605818 -122.634851 
L 170.146909 -127.624985 
L 170.688 -126.216829 
L 171.229091 -127.0536 
L 171.770182 -127.25981 
L 172.311273 -130.315115 
L 172.852364 -128.817893 
L 173.393455 -129.670814 
L 173.934545 -133.030071 
L 174.475636 -135.526042 
L 175.016727 -134.937302 
L 175.557818 -132.037829 
L 176.098909 -137.329505 
L 176.64 -137.02941 
L 177.181091 -137.25418 
L 177.722182 -137.821227 
L 178.263273 -138.332835 
L 178.804364 -140.233798 
L 179.345455 -140.28755 
L 179.886545 -142.518498 
L 180.427636 -147.973599 
L 180.968727 -139.069092 
L 181.509818 -149.514931 
L 182.050909 -145.820628 
L 182.592 -146.84071 
L 183.133091 -146.682468 
L 183.674182 -147.873688 
L 184.215273 -146.962556 
L 184.756364 -150.312895 
L 185.297455 -150.944661 
L 185.838545 -152.406449 
L 186.379636 -154.395634 
L 186.920727 -151.70442 
L 187.461818 -153.552354 
L 188.002909 -155.696889 
L 188.544 -160.309193 
L 189.085091 -160.450202 
L 189.626182 -163.014749 
L 190.167273 -164.823756 
L 190.708364 -166.34014 
L 191.249455 -165.644859 
L 191.790545 -168.072255 
L 192.331636 -169.290592 
L 192.872727 -168.078883 
L 193.413818 -169.515844 
L 193.954909 -169.151512 
L 194.496 -171.922751 
L 195.037091 -171.47297 
L 195.578182 -175.503524 
L 196.119273 -167.065189 
L 196.660364 -172.151378 
L 197.201455 -175.485808 
L 197.742545 -173.315964 
L 198.283636 -174.348218 
L 198.824727 -178.48254 
L 199.365818 -175.861951 
L 199.906909 -180.724937 
L 200.448 -180.853773 
L 200.989091 -180.800021 
L 201.530182 -180.159095 
L 202.071273 -181.10795 
L 202.612364 -184.092751 
L 203.153455 -182.825482 
L 203.694545 -184.209655 
L 204.235636 -183.842792 
L 204.776727 -187.806457 
L 205.317818 -184.551691 
L 205.858909 -186.413727 
L 206.4 -188.978877 
L 206.941091 -188.596346 
L 207.482182 -191.027116 
L 208.023273 -189.150497 
L 208.564364 -191.997905 
L 209.105455 -193.378222 
L 209.646545 -192.898672 
L 210.187636 -194.86315 
L 210.728727 -194.472665 
L 211.269818 -197.625591 
L 211.810909 -195.489614 
L 212.352 -197.111573 
L 212.893091 -196.616115 
L 213.434182 -198.347868 
L 213.975273 -198.719311 
L 214.516364 -201.252523 
L 215.057455 -200.040814 
L 215.598545 -203.554939 
L 216.139636 -204.79955 
L 216.680727 -203.396455 
L 217.221818 -206.414158 
L 217.762909 -209.84633 
L 218.304 -207.298173 
L 218.845091 -211.304502 
L 219.386182 -210.233079 
L 219.927273 -215.907406 
L 220.468364 -213.309595 
L 221.009455 -214.90022 
L 221.550545 -212.097043 
L 222.091636 -219.939406 
L 222.632727 -218.926435 
L 223.173818 -220.237693 
L 223.714909 -223.283718 
L 224.256 -220.975397 
L 224.797091 -224.352852 
L 225.338182 -226.318656 
L 225.879273 -224.437578 
L 226.420364 -229.956434 
L 226.961455 -227.335243 
L 227.502545 -230.640265 
L 228.043636 -231.453415 
L 228.584727 -235.441786 
L 229.125818 -234.69408 
L 229.666909 -233.165523 
L 230.208 -236.493686 
L 230.749091 -237.37758 
L 231.290182 -236.933223 
L 231.831273 -240.376482 
L 232.372364 -239.696628 
L 232.913455 -240.583174 
L 233.454545 -241.113462 
L 233.995636 -244.254578 
L 234.536727 -235.26185 
L 235.077818 -239.849086 
L 235.618909 -242.915238 
L 236.16 -241.333652 
L 236.701091 -80.554293 
L 237.242182 -76.561583 
L 237.783273 -72.104388 
L 238.324364 -69.644813 
L 238.865455 -68.713796 
L 239.406545 -73.438545 
L 239.947636 -71.714626 
L 240.488727 -71.985314 
L 241.029818 -70.158229 
L 241.570909 -69.936352 
L 242.112 -68.435876 
L 242.653091 -67.299251 
L 243.194182 -68.401769 
L 243.735273 -66.815001 
L 244.276364 -67.63719 
L 244.817455 -66.585652 
L 245.358545 -67.626704 
L 245.899636 -65.404796 
L 246.440727 -63.135282 
L 246.981818 -64.751818 
L 247.522909 -66.543831 
L 248.064 -63.610854 
L 248.605091 -63.859487 
L 249.146182 -59.306117 
L 249.687273 -63.31787 
L 250.228364 -61.104156 
L 250.769455 -59.95572 
L 251.310545 -60.796228 
L 251.851636 -59.400966 
L 252.392727 -60.178803 
L 252.933818 -56.36615 
L 253.474909 -58.559254 
L 254.016 -58.103929 
L 254.557091 -58.265546 
L 255.098182 -56.804843 
L 255.639273 -56.601887 
L 256.180364 -56.544278 
L 256.721455 -57.158931 
L 257.262545 -57.056248 
L 257.803636 -57.461316 
L 258.344727 -57.565566 
L 258.885818 -57.281861 
L 259.426909 -58.096818 
L 259.968 -59.099063 
L 260.509091 -57.210393 
L 261.050182 -59.378188 
L 261.591273 -57.195569 
L 262.132364 -59.634414 
L 262.673455 -59.05423 
L 263.214545 -59.200903 
L 263.755636 -56.837022 
L 264.296727 -58.393539 
L 264.837818 -58.158043 
L 265.378909 -56.288776 
L 265.92 -57.634624 
L 266.461091 -58.177205 
L 267.002182 -58.280129 
L 267.543273 -58.844043 
L 268.084364 -56.698303 
L 268.625455 -58.423307 
L 269.166545 -57.887234 
L 269.707636 -50.112 
L 270.248727 -56.510412 
L 270.789818 -54.163042 
L 271.330909 -52.42695 
L 271.872 -52.500106 
L 272.413091 -52.924939 
L 272.954182 -53.744837 
L 273.495273 -52.412367 
L 274.036364 -52.35982 
L 274.577455 -52.339211 
L 275.118545 -51.996573 
L 275.659636 -51.839415 
L 276.200727 -52.97604 
L 276.741818 -52.37127 
L 277.282909 -51.996814 
L 277.824 -52.196757 
L 278.365091 -51.004572 
L 278.906182 -50.950579 
L 279.447273 -51.193547 
L 279.988364 -50.646868 
L 280.529455 -54.056743 
L 281.070545 -53.03871 
L 281.611636 -53.947552 
L 282.152727 -52.571454 
L 282.693818 -56.038094 
L 283.234909 -56.598994 
L 283.776 -56.683238 
L 284.317091 -56.576216 
L 284.858182 -57.614738 
L 285.399273 -56.679261 
L 285.940364 -58.320865 
L 286.481455 -57.636552 
L 287.022545 -58.207335 
L 287.563636 -57.463124 
L 288.104727 -54.485916 
L 288.645818 -53.19394 
L 289.186909 -55.14516 
L 289.728 -52.546747 
L 290.269091 -52.266658 
L 290.810182 -53.316871 
L 291.351273 -52.548193 
L 291.892364 -50.652051 
L 292.433455 -54.055418 
L 292.974545 -53.543689 
L 293.515636 -52.60074 
L 294.056727 -54.408783 
L 294.597818 -53.309398 
L 295.138909 -52.920721 
L 295.68 -53.044857 
L 296.221091 -54.898697 
L 296.762182 -55.71751 
L 297.303273 -55.671351 
L 297.844364 -53.978164 
L 298.385455 -59.77494 
L 298.926545 -57.788166 
L 299.467636 -59.426276 
L 300.008727 -59.739266 
L 300.549818 -59.821581 
L 301.090909 -59.527995 
L 301.632 -59.008071 
L 302.173091 -60.153976 
L 302.714182 -63.061644 
L 303.255273 -62.414571 
L 303.796364 -59.509434 
L 304.337455 -62.853988 
L 304.878545 -62.939075 
L 305.419636 -64.112338 
L 305.960727 -64.63648 
L 306.501818 -64.503667 
L 307.042909 -64.647688 
L 307.584 -65.476987 
L 308.125091 -64.474863 
L 308.666182 -67.056162 
L 309.207273 -67.959581 
L 309.748364 -69.17816 
L 310.289455 -67.665512 
L 310.830545 -69.431734 
L 311.371636 -70.283329 
L 311.912727 -69.801128 
L 312.453818 -72.09559 
L 312.994909 -71.290756 
L 313.536 -71.426221 
L 314.077091 -72.207312 
L 314.618182 -73.296814 
L 315.159273 -72.830642 
L 315.700364 -72.994308 
L 316.241455 -75.124983 
L 316.782545 -70.243557 
L 317.323636 -73.294524 
L 317.864727 -71.421762 
L 318.405818 -72.025206 
L 318.946909 -75.839547 
L 319.488 -74.384266 
L 320.029091 -79.05201 
L 320.570182 -79.235442 
L 321.111273 -80.061004 
L 321.652364 -78.965838 
L 322.193455 -80.497528 
L 322.734545 -81.337553 
L 323.275636 -81.930512 
L 323.816727 -81.402393 
L 324.357818 -82.892383 
L 324.898909 -84.293068 
L 325.44 -85.318573 
L 325.981091 -85.022937 
L 326.522182 -84.34923 
L 327.063273 -85.879353 
L 327.604364 -87.420685 
L 328.145455 -87.163374 
L 328.686545 -88.261433 
L 329.227636 -89.588721 
L 329.768727 -92.44565 
L 330.309818 -90.697024 
L 330.850909 -90.279663 
L 331.392 -89.349729 
L 331.933091 -94.960302 
L 332.474182 -94.361558 
L 333.015273 -95.58315 
L 333.556364 -95.17531 
L 334.097455 -97.542565 
L 334.638545 -95.578208 
L 335.179636 -97.156178 
L 335.720727 -96.923213 
L 336.261818 -99.602013 
L 336.802909 -98.518899 
L 337.344 -99.665286 
L 337.885091 -101.345939 
L 338.426182 -102.988869 
L 338.967273 -101.155035 
L 339.508364 -100.768889 
L 340.049455 -103.753689 
L 340.590545 -104.473315 
L 341.131636 -104.7804 
L 341.672727 -104.506096 
L 342.213818 -104.171292 
L 342.754909 -105.307555 
L 343.296 -108.186901 
L 343.837091 -105.977165 
L 344.378182 -108.265842 
L 344.919273 -109.199872 
L 345.460364 -109.861166 
L 346.001455 -110.434239 
L 346.542545 -111.427445 
L 347.083636 -111.489634 
L 347.624727 -112.303024 
L 348.165818 -111.514822 
L 348.706909 -112.9742 
L 349.248 -113.617055 
L 349.789091 -113.455437 
L 350.330182 -113.933902 
L 350.871273 -116.93883 
L 351.412364 -117.63182 
L 351.953455 -118.635271 
L 352.494545 -118.586821 
L 353.035636 -118.833526 
L 353.576727 -120.212758 
L 354.117818 -120.730271 
L 354.658909 -119.803713 
L 355.2 -120.399926 
L 355.741091 -123.392078 
L 356.282182 -123.529712 
L 356.823273 -123.59407 
L 357.364364 -123.372072 
L 357.905455 -125.105272 
L 358.446545 -124.274888 
L 358.987636 -125.588075 
L 359.528727 -122.752358 
L 360.069818 -123.084391 
L 360.610909 -128.102245 
L 361.152 -127.112896 
L 361.693091 -126.881738 
L 362.234182 -129.0094 
L 362.775273 -130.123126 
L 363.316364 -129.531011 
L 363.857455 -128.702556 
L 364.398545 -129.508353 
L 364.939636 -132.377455 
L 365.480727 -130.245454 
L 366.021818 -134.715424 
L 366.562909 -132.01264 
L 367.104 -131.914296 
L 367.645091 -133.024768 
L 368.186182 -134.751098 
L 368.727273 -134.167419 
L 369.268364 -133.355114 
L 369.809455 -135.469277 
L 370.350545 -136.406442 
L 370.891636 -136.101285 
L 371.432727 -130.198813 
L 371.973818 -136.121171 
L 372.514909 -136.057777 
L 373.056 -138.082394 
L 373.597091 -134.298786 
L 374.138182 -134.06112 
L 374.679273 -135.180993 
L 375.220364 -134.088599 
L 375.761455 -136.212043 
L 376.302545 -136.027044 
L 376.843636 -135.913032 
L 377.384727 -135.676813 
L 377.925818 -136.177333 
L 378.466909 -135.011904 
L 379.008 -137.388921 
L 379.549091 -137.162946 
L 380.090182 -131.805346 
L 380.631273 -139.245413 
L 381.172364 -141.481664 
L 381.713455 -141.259786 
L 382.254545 -142.339164 
L 382.795636 -142.135726 
L 383.336727 -142.172485 
L 383.877818 -144.108761 
L 384.418909 -143.158821 
L 384.96 -144.936975 
L 385.501091 -146.264383 
L 386.042182 -145.945728 
L 386.583273 -147.782093 
L 387.124364 -148.436035 
L 387.665455 -152.65219 
L 388.206545 -152.043684 
L 388.747636 -152.052241 
L 389.288727 -156.087013 
L 389.829818 -157.493603 
L 390.370909 -159.638499 
L 390.912 -160.267855 
L 391.453091 -160.378733 
L 391.994182 -163.972281 
L 392.535273 -162.328267 
L 393.076364 -149.849133 
L 393.617455 -163.647239 
L 394.158545 -157.227012 
L 394.699636 -159.381912 
L 395.240727 -159.545096 
L 395.781818 -161.797617 
L 396.322909 -163.203243 
L 396.864 -161.764715 
L 397.405091 -159.612467 
L 397.946182 -161.294927 
L 398.487273 -165.127346 
L 398.487273 -205.511101 
L 398.487273 -205.511101 
L 397.946182 -203.184702 
L 397.405091 -202.401803 
L 396.864 -205.020946 
L 396.322909 -205.613784 
L 395.781818 -201.769193 
L 395.240727 -202.768064 
L 394.699636 -202.450252 
L 394.158545 -199.863891 
L 393.617455 -203.984714 
L 393.076364 -192.361996 
L 392.535273 -203.805019 
L 391.994182 -205.124232 
L 391.453091 -203.141314 
L 390.912 -201.408838 
L 390.370909 -201.537674 
L 389.829818 -197.314047 
L 389.288727 -196.321323 
L 388.747636 -191.543544 
L 388.206545 -191.894378 
L 387.665455 -192.183024 
L 387.124364 -186.002392 
L 386.583273 -188.046654 
L 386.042182 -184.949649 
L 385.501091 -187.249052 
L 384.96 -184.026826 
L 384.418909 -182.052707 
L 383.877818 -183.101473 
L 383.336727 -179.20096 
L 382.795636 -182.232643 
L 382.254545 -178.753228 
L 381.713455 -179.822482 
L 381.172364 -178.379736 
L 380.631273 -178.126885 
L 380.090182 -168.832495 
L 379.549091 -174.730388 
L 379.008 -175.817117 
L 378.466909 -173.617023 
L 377.925818 -171.772463 
L 377.384727 -173.587134 
L 376.843636 -175.109905 
L 376.302545 -172.443398 
L 375.761455 -173.884096 
L 375.220364 -172.364699 
L 374.679273 -170.387446 
L 374.138182 -171.165644 
L 373.597091 -170.244268 
L 373.056 -175.344076 
L 372.514909 -172.848225 
L 371.973818 -171.752577 
L 371.432727 -168.661357 
L 370.891636 -171.476586 
L 370.350545 -173.5376 
L 369.809455 -170.981007 
L 369.268364 -169.733142 
L 368.727273 -171.295203 
L 368.186182 -169.740976 
L 367.645091 -170.774074 
L 367.104 -167.095319 
L 366.562909 -167.646457 
L 366.021818 -168.283165 
L 365.480727 -167.158833 
L 364.939636 -166.089217 
L 364.398545 -165.134336 
L 363.857455 -164.47473 
L 363.316364 -162.490246 
L 362.775273 -163.636874 
L 362.234182 -164.225494 
L 361.693091 -162.648127 
L 361.152 -160.719203 
L 360.610909 -162.891819 
L 360.069818 -159.512435 
L 359.528727 -158.251192 
L 358.987636 -160.018981 
L 358.446545 -159.065908 
L 357.905455 -158.447519 
L 357.364364 -156.842915 
L 356.823273 -155.477542 
L 356.282182 -158.516336 
L 355.741091 -156.904259 
L 355.2 -152.450801 
L 354.658909 -152.912152 
L 354.117818 -153.524996 
L 353.576727 -152.771625 
L 353.035636 -151.467839 
L 352.494545 -150.507776 
L 351.953455 -150.773281 
L 351.412364 -148.670808 
L 350.871273 -148.676834 
L 350.330182 -146.443958 
L 349.789091 -146.117831 
L 349.248 -145.21393 
L 348.706909 -146.235941 
L 348.165818 -141.155295 
L 347.624727 -143.867962 
L 347.083636 -143.509655 
L 346.542545 -141.270151 
L 346.001455 -141.939761 
L 345.460364 -137.814719 
L 344.919273 -138.508915 
L 344.378182 -137.55536 
L 343.837091 -135.480727 
L 343.296 -136.676527 
L 342.754909 -135.761177 
L 342.213818 -133.411517 
L 341.672727 -134.20478 
L 341.131636 -132.908948 
L 340.590545 -133.487204 
L 340.049455 -131.985282 
L 339.508364 -130.664864 
L 338.967273 -129.196809 
L 338.426182 -131.68362 
L 337.885091 -131.00919 
L 337.344 -128.327136 
L 336.802909 -126.78484 
L 336.261818 -126.744827 
L 335.720727 -124.47001 
L 335.179636 -124.393239 
L 334.638545 -124.44205 
L 334.097455 -125.207473 
L 333.556364 -122.141923 
L 333.015273 -123.60793 
L 332.474182 -120.796558 
L 331.933091 -121.971749 
L 331.392 -118.760732 
L 330.850909 -117.562642 
L 330.309818 -116.579318 
L 329.768727 -117.701722 
L 329.227636 -116.299832 
L 328.686545 -114.716198 
L 328.145455 -113.722148 
L 327.604364 -115.517777 
L 327.063273 -111.874454 
L 326.522182 -112.487902 
L 325.981091 -110.596459 
L 325.44 -111.999434 
L 324.898909 -112.01715 
L 324.357818 -109.285562 
L 323.816727 -107.07221 
L 323.275636 -107.154526 
L 322.734545 -107.315541 
L 322.193455 -106.482867 
L 321.652364 -104.110549 
L 321.111273 -106.308957 
L 320.570182 -105.794577 
L 320.029091 -103.342234 
L 319.488 -99.08221 
L 318.946909 -100.631255 
L 318.405818 -96.22504 
L 317.864727 -98.072974 
L 317.323636 -98.179032 
L 316.782545 -96.703505 
L 316.241455 -100.112175 
L 315.700364 -98.001868 
L 315.159273 -97.873634 
L 314.618182 -100.010456 
L 314.077091 -97.532442 
L 313.536 -96.154656 
L 312.994909 -94.73746 
L 312.453818 -96.095119 
L 311.912727 -94.200543 
L 311.371636 -93.031378 
L 310.830545 -93.211917 
L 310.289455 -92.585453 
L 309.748364 -91.724337 
L 309.207273 -92.085897 
L 308.666182 -91.406043 
L 308.125091 -87.87155 
L 307.584 -89.012394 
L 307.042909 -88.190326 
L 306.501818 -87.347047 
L 305.960727 -88.08463 
L 305.419636 -87.471906 
L 304.878545 -86.280926 
L 304.337455 -86.170289 
L 303.796364 -83.103655 
L 303.255273 -85.217095 
L 302.714182 -86.262607 
L 302.173091 -83.706014 
L 301.632 -81.507125 
L 301.090909 -81.397813 
L 300.549818 -83.813398 
L 300.008727 -81.674889 
L 299.467636 -81.515079 
L 298.926545 -82.699189 
L 298.385455 -82.115149 
L 297.844364 -74.983613 
L 297.303273 -77.467773 
L 296.762182 -77.535264 
L 296.221091 -77.486815 
L 295.68 -75.716616 
L 295.138909 -75.482446 
L 294.597818 -75.05255 
L 294.056727 -75.780371 
L 293.515636 -74.971561 
L 292.974545 -75.149207 
L 292.433455 -75.173553 
L 291.892364 -72.687464 
L 291.351273 -75.008802 
L 290.810182 -75.443518 
L 290.269091 -74.324006 
L 289.728 -74.46863 
L 289.186909 -75.869436 
L 288.645818 -76.730431 
L 288.104727 -76.668363 
L 287.563636 -79.542406 
L 287.022545 -80.779063 
L 286.481455 -78.891839 
L 285.940364 -80.435701 
L 285.399273 -78.862793 
L 284.858182 -79.251591 
L 284.317091 -77.440415 
L 283.776 -78.807836 
L 283.234909 -77.445597 
L 282.693818 -77.973596 
L 282.152727 -74.684602 
L 281.611636 -74.765833 
L 281.070545 -74.953603 
L 280.529455 -74.850197 
L 279.988364 -71.292323 
L 279.447273 -72.546094 
L 278.906182 -72.775685 
L 278.365091 -73.069031 
L 277.824 -73.962446 
L 277.282909 -73.795767 
L 276.741818 -73.952804 
L 276.200727 -74.021862 
L 275.659636 -73.123747 
L 275.118545 -72.829557 
L 274.577455 -73.640175 
L 274.036364 -73.796128 
L 273.495273 -74.460556 
L 272.954182 -75.352284 
L 272.413091 -75.3606 
L 271.872 -74.803194 
L 271.330909 -73.881577 
L 270.789818 -76.075645 
L 270.248727 -77.401969 
L 269.707636 -72.398577 
L 269.166545 -79.030075 
L 268.625455 -80.827874 
L 268.084364 -77.266143 
L 267.543273 -79.420801 
L 267.002182 -80.235276 
L 266.461091 -81.223662 
L 265.92 -78.349739 
L 265.378909 -78.047595 
L 264.837818 -79.902761 
L 264.296727 -80.929834 
L 263.755636 -79.411883 
L 263.214545 -80.134763 
L 262.673455 -79.642799 
L 262.132364 -81.765158 
L 261.591273 -77.895017 
L 261.050182 -81.152675 
L 260.509091 -79.706796 
L 259.968 -80.673005 
L 259.426909 -80.3335 
L 258.885818 -79.053456 
L 258.344727 -79.72174 
L 257.803636 -79.024893 
L 257.262545 -78.04181 
L 256.721455 -79.437915 
L 256.180364 -77.300612 
L 255.639273 -78.836761 
L 255.098182 -77.772569 
L 254.557091 -78.751071 
L 254.016 -79.913849 
L 253.474909 -79.718848 
L 252.933818 -77.5713 
L 252.392727 -81.26741 
L 251.851636 -80.919951 
L 251.310545 -82.580236 
L 250.769455 -81.671635 
L 250.228364 -83.148729 
L 249.687273 -84.24498 
L 249.146182 -82.820674 
L 248.605091 -85.018599 
L 248.064 -85.513936 
L 247.522909 -88.142118 
L 246.981818 -86.761681 
L 246.440727 -84.574844 
L 245.899636 -88.012679 
L 245.358545 -87.734037 
L 244.817455 -89.107123 
L 244.276364 -90.542396 
L 243.735273 -87.818401 
L 243.194182 -90.701242 
L 242.653091 -90.53155 
L 242.112 -90.94867 
L 241.570909 -92.201115 
L 241.029818 -93.24277 
L 240.488727 -94.263455 
L 239.947636 -94.291897 
L 239.406545 -96.202382 
L 238.865455 -91.155482 
L 238.324364 -92.773344 
L 237.783273 -94.062668 
L 237.242182 -99.731693 
L 236.701091 -104.835237 
L 236.16 -288.905347 
L 235.618909 -292.032 
L 235.077818 -290.870186 
L 234.536727 -283.973905 
L 233.995636 -290.784014 
L 233.454545 -287.489838 
L 232.913455 -289.572908 
L 232.372364 -286.532668 
L 231.831273 -288.714925 
L 231.290182 -282.910798 
L 230.749091 -284.946141 
L 230.208 -281.886497 
L 229.666909 -281.580015 
L 229.125818 -280.394579 
L 228.584727 -283.210772 
L 228.043636 -278.987868 
L 227.502545 -276.084419 
L 226.961455 -270.950624 
L 226.420364 -273.312215 
L 225.879273 -269.255027 
L 225.338182 -270.585086 
L 224.797091 -271.296275 
L 224.256 -266.937545 
L 223.714909 -265.566388 
L 223.173818 -264.624644 
L 222.632727 -263.154781 
L 222.091636 -263.201422 
L 221.550545 -257.231098 
L 221.009455 -256.354314 
L 220.468364 -257.143479 
L 219.927273 -258.352899 
L 219.386182 -254.375735 
L 218.845091 -254.271847 
L 218.304 -249.894316 
L 217.762909 -251.064566 
L 217.221818 -250.007605 
L 216.680727 -246.560127 
L 216.139636 -245.357819 
L 215.598545 -246.584834 
L 215.057455 -241.084537 
L 214.516364 -240.945457 
L 213.975273 -238.007539 
L 213.434182 -239.948877 
L 212.893091 -235.270407 
L 212.352 -238.371268 
L 211.810909 -235.904463 
L 211.269818 -237.082547 
L 210.728727 -236.539483 
L 210.187636 -234.535716 
L 209.646545 -234.363613 
L 209.105455 -235.060822 
L 208.564364 -229.80012 
L 208.023273 -227.412135 
L 207.482182 -228.97528 
L 206.941091 -227.814069 
L 206.4 -226.242246 
L 205.858909 -225.605538 
L 205.317818 -223.065939 
L 204.776727 -226.118592 
L 204.235636 -222.510702 
L 203.694545 -221.966434 
L 203.153455 -221.294534 
L 202.612364 -222.119012 
L 202.071273 -220.106085 
L 201.530182 -216.811789 
L 200.989091 -215.399534 
L 200.448 -219.618702 
L 199.906909 -218.96946 
L 199.365818 -214.01512 
L 198.824727 -215.87113 
L 198.283636 -212.330611 
L 197.742545 -210.281889 
L 197.201455 -212.198279 
L 196.660364 -209.13032 
L 196.119273 -201.98625 
L 195.578182 -212.785453 
L 195.037091 -209.258915 
L 194.496 -206.60229 
L 193.954909 -203.590252 
L 193.413818 -204.114996 
L 192.872727 -205.161231 
L 192.331636 -205.398415 
L 191.790545 -203.401517 
L 191.249455 -200.996539 
L 190.708364 -203.57362 
L 190.167273 -201.310493 
L 189.626182 -198.387519 
L 189.085091 -194.671523 
L 188.544 -194.030477 
L 188.002909 -188.331684 
L 187.461818 -187.073092 
L 186.920727 -186.38902 
L 186.379636 -186.644402 
L 185.838545 -186.452896 
L 185.297455 -183.370112 
L 184.756364 -182.71617 
L 184.215273 -179.596869 
L 183.674182 -179.943726 
L 183.133091 -179.510456 
L 182.592 -178.884475 
L 182.050909 -178.57751 
L 181.509818 -180.420985 
L 180.968727 -173.67656 
L 180.427636 -180.305166 
L 179.886545 -176.430203 
L 179.345455 -170.649457 
L 178.804364 -172.901977 
L 178.263273 -170.181356 
L 177.722182 -167.709128 
L 177.181091 -168.291842 
L 176.64 -169.362784 
L 176.098909 -169.650586 
L 175.557818 -163.327619 
L 175.016727 -166.695915 
L 174.475636 -166.157431 
L 173.934545 -162.950632 
L 173.393455 -159.505806 
L 172.852364 -158.698322 
L 172.311273 -159.210171 
L 171.770182 -157.829974 
L 171.229091 -155.941304 
L 170.688 -154.85602 
L 170.146909 -156.559813 
L 169.605818 -152.233864 
L 169.064727 -152.80983 
L 168.523636 -149.539758 
L 167.982545 -150.795939 
L 167.441455 -149.65377 
L 166.900364 -147.167199 
L 166.359273 -148.184148 
L 165.818182 -144.190112 
L 165.277091 -143.388774 
L 164.736 -143.540991 
L 164.194909 -141.886129 
L 163.653818 -142.688431 
L 163.112727 -140.732752 
L 162.571636 -141.555301 
L 162.030545 -140.487373 
L 161.489455 -139.464639 
L 160.948364 -138.614249 
L 160.407273 -137.77555 
L 159.866182 -133.951688 
L 159.325091 -134.170794 
L 158.784 -134.157898 
L 158.242909 -133.062611 
L 157.701818 -130.839377 
L 157.160727 -127.940989 
L 156.619636 -125.241821 
L 156.078545 -126.304447 
L 155.537455 -123.732909 
L 154.996364 -122.334274 
L 154.455273 -122.30559 
L 153.914182 -120.587455 
L 153.373091 -118.680466 
L 152.832 -120.594927 
L 152.290909 -118.19947 
L 151.749818 -118.195613 
L 151.208727 -110.337221 
L 150.667636 -117.38608 
L 150.126545 -116.736597 
L 149.585455 -113.551853 
L 149.044364 -112.036433 
L 148.503273 -109.814043 
L 147.962182 -113.740106 
L 147.421091 -106.691608 
L 146.88 -111.849266 
L 146.338909 -110.957176 
L 145.797818 -107.824497 
L 145.256727 -107.26685 
L 144.715636 -108.766241 
L 144.174545 -107.754354 
L 143.633455 -103.291013 
L 143.092364 -106.570967 
L 142.551273 -106.982785 
L 142.010182 -104.708932 
L 141.469091 -104.432338 
L 140.928 -101.841156 
L 140.386909 -103.109148 
L 139.845818 -99.857516 
L 139.304727 -100.587867 
L 138.763636 -98.770424 
L 138.222545 -98.481176 
L 137.681455 -96.076318 
L 137.140364 -94.959579 
L 136.599273 -93.243131 
L 136.058182 -93.434999 
L 135.517091 -93.247109 
L 134.976 -91.607674 
L 134.434909 -90.971327 
L 133.893818 -90.686538 
L 133.352727 -89.751182 
L 132.811636 -89.44711 
L 132.270545 -90.733541 
L 131.729455 -88.412204 
L 131.188364 -86.487859 
L 130.647273 -89.376123 
L 130.106182 -90.040069 
L 129.565091 -87.159759 
L 129.024 -87.711379 
L 128.482909 -86.658275 
L 127.941818 -86.528354 
L 127.400727 -88.565746 
L 126.859636 -86.536188 
L 126.318545 -87.364643 
L 125.777455 -87.349819 
L 125.236364 -85.81367 
L 124.695273 -87.332585 
L 124.154182 -86.859302 
L 123.613091 -89.489653 
L 123.072 -89.341293 
L 122.530909 -87.504205 
L 121.989818 -85.564916 
L 121.448727 -87.706558 
L 120.907636 -87.106609 
L 120.366545 -86.568849 
L 119.825455 -86.796873 
L 119.284364 -87.275458 
L 118.743273 -86.305994 
L 118.202182 -85.81837 
L 117.661091 -84.589788 
L 117.12 -84.295599 
L 116.578909 -84.410093 
L 116.037818 -83.041707 
L 115.496727 -85.379797 
L 114.955636 -82.53709 
L 114.414545 -84.296322 
L 113.873455 -81.194014 
L 113.332364 -82.635555 
L 112.791273 -83.038212 
L 112.250182 -83.724695 
L 111.709091 -83.234178 
L 111.168 -82.828507 
L 110.626909 -82.163477 
L 110.085818 -82.437781 
L 109.544727 -80.033285 
L 109.003636 -82.406566 
L 108.462545 -82.956138 
L 107.921455 -83.746629 
L 107.380364 -79.820567 
L 106.839273 -80.731819 
L 106.298182 -81.122184 
L 105.757091 -80.302768 
L 105.216 -79.343548 
L 104.674909 -78.762882 
L 104.133818 -79.093469 
L 103.592727 -78.689847 
L 103.051636 -76.992683 
L 102.510545 -78.200776 
L 101.969455 -76.932905 
L 101.428364 -77.356292 
L 100.887273 -78.070615 
L 100.346182 -77.819451 
L 99.805091 -78.001316 
L 99.264 -81.129174 
L 98.722909 -79.940966 
L 98.181818 -81.036012 
L 97.640727 -79.892276 
L 97.099636 -81.186903 
L 96.558545 -78.789035 
L 96.017455 -80.30325 
L 95.476364 -81.157014 
L 94.935273 -80.390627 
L 94.394182 -78.244164 
L 93.853091 -81.29742 
L 93.312 -80.758575 
L 92.770909 -80.780991 
L 92.229818 -82.679665 
L 91.688727 -80.838961 
L 91.147636 -79.323903 
L 90.606545 -81.374312 
L 90.065455 -78.962343 
L 89.524364 -80.345311 
L 88.983273 -79.952295 
L 88.442182 -80.500179 
L 87.901091 -79.956393 
L 87.36 -82.255555 
L 86.818909 -81.402513 
L 86.277818 -83.004708 
L 85.736727 -82.368121 
L 85.195636 -83.363737 
L 84.654545 -83.675161 
L 84.113455 -84.313556 
L 83.572364 -83.2114 
L 83.031273 -82.929383 
L 82.490182 -83.78857 
L 81.949091 -85.812826 
L 81.408 -85.460787 
L 80.866909 -86.641281 
L 80.325818 -86.897989 
L 79.784727 -87.010675 
L 79.243636 -86.639956 
L 78.702545 -88.077881 
L 78.161455 -88.107288 
L 77.620364 -90.309793 
L 77.079273 -89.245962 
L 76.538182 -92.421666 
L 75.997091 -91.288416 
L 75.456 -94.186683 
L 74.914909 -93.985174 
L 74.373818 -99.596107 
L 73.832727 -109.881052 
z
" id="meb6503755f" style="stroke:#1f77b4;stroke-opacity:0.2;"/>
    </defs>
    <g clip-path="url(#p72030eee98)">
     <use style="fill:#1f77b4;fill-opacity:0.2;stroke:#1f77b4;stroke-opacity:0.2;" x="0" xlink:href="#meb6503755f" y="345.6"/>
    </g>
   </g>
   <g id="matplotlib.axis_1">
    <g id="xtick_1">
     <g id="line2d_1">
      <defs>
       <path d="M 0 0 
L 0 3.5 
" id="m92076d7143" style="stroke:#000000;stroke-width:0.8;"/>
      </defs>
      <g>
       <use style="stroke:#000000;stroke-width:0.8;" x="73.291636" xlink:href="#m92076d7143" y="307.584"/>
      </g>
     </g>
     <g id="text_1">
      <!-- 0 -->
      <g transform="translate(70.110386 322.182437)scale(0.1 -0.1)">
       <defs>
        <path d="M 2034 4250 
Q 1547 4250 1301 3770 
Q 1056 3291 1056 2328 
Q 1056 1369 1301 889 
Q 1547 409 2034 409 
Q 2525 409 2770 889 
Q 3016 1369 3016 2328 
Q 3016 3291 2770 3770 
Q 2525 4250 2034 4250 
z
M 2034 4750 
Q 2819 4750 3233 4129 
Q 3647 3509 3647 2328 
Q 3647 1150 3233 529 
Q 2819 -91 2034 -91 
Q 1250 -91 836 529 
Q 422 1150 422 2328 
Q 422 3509 836 4129 
Q 1250 4750 2034 4750 
z
" id="DejaVuSans-30" transform="scale(0.015625)"/>
       </defs>
       <use xlink:href="#DejaVuSans-30"/>
      </g>
     </g>
    </g>
    <g id="xtick_2">
     <g id="line2d_2">
      <g>
       <use style="stroke:#000000;stroke-width:0.8;" x="127.400727" xlink:href="#m92076d7143" y="307.584"/>
      </g>
     </g>
     <g id="text_2">
      <!-- 100 -->
      <g transform="translate(117.856977 322.182437)scale(0.1 -0.1)">
       <defs>
        <path d="M 794 531 
L 1825 531 
L 1825 4091 
L 703 3866 
L 703 4441 
L 1819 4666 
L 2450 4666 
L 2450 531 
L 3481 531 
L 3481 0 
L 794 0 
L 794 531 
z
" id="DejaVuSans-31" transform="scale(0.015625)"/>
       </defs>
       <use xlink:href="#DejaVuSans-31"/>
       <use x="63.623047" xlink:href="#DejaVuSans-30"/>
       <use x="127.246094" xlink:href="#DejaVuSans-30"/>
      </g>
     </g>
    </g>
    <g id="xtick_3">
     <g id="line2d_3">
      <g>
       <use style="stroke:#000000;stroke-width:0.8;" x="181.509818" xlink:href="#m92076d7143" y="307.584"/>
      </g>
     </g>
     <g id="text_3">
      <!-- 200 -->
      <g transform="translate(171.966068 322.182437)scale(0.1 -0.1)">
       <defs>
        <path d="M 1228 531 
L 3431 531 
L 3431 0 
L 469 0 
L 469 531 
Q 828 903 1448 1529 
Q 2069 2156 2228 2338 
Q 2531 2678 2651 2914 
Q 2772 3150 2772 3378 
Q 2772 3750 2511 3984 
Q 2250 4219 1831 4219 
Q 1534 4219 1204 4116 
Q 875 4013 500 3803 
L 500 4441 
Q 881 4594 1212 4672 
Q 1544 4750 1819 4750 
Q 2544 4750 2975 4387 
Q 3406 4025 3406 3419 
Q 3406 3131 3298 2873 
Q 3191 2616 2906 2266 
Q 2828 2175 2409 1742 
Q 1991 1309 1228 531 
z
" id="DejaVuSans-32" transform="scale(0.015625)"/>
       </defs>
       <use xlink:href="#DejaVuSans-32"/>
       <use x="63.623047" xlink:href="#DejaVuSans-30"/>
       <use x="127.246094" xlink:href="#DejaVuSans-30"/>
      </g>
     </g>
    </g>
    <g id="xtick_4">
     <g id="line2d_4">
      <g>
       <use style="stroke:#000000;stroke-width:0.8;" x="235.618909" xlink:href="#m92076d7143" y="307.584"/>
      </g>
     </g>
     <g id="text_4">
      <!-- 300 -->
      <g transform="translate(226.075159 322.182437)scale(0.1 -0.1)">
       <defs>
        <path d="M 2597 2516 
Q 3050 2419 3304 2112 
Q 3559 1806 3559 1356 
Q 3559 666 3084 287 
Q 2609 -91 1734 -91 
Q 1441 -91 1130 -33 
Q 819 25 488 141 
L 488 750 
Q 750 597 1062 519 
Q 1375 441 1716 441 
Q 2309 441 2620 675 
Q 2931 909 2931 1356 
Q 2931 1769 2642 2001 
Q 2353 2234 1838 2234 
L 1294 2234 
L 1294 2753 
L 1863 2753 
Q 2328 2753 2575 2939 
Q 2822 3125 2822 3475 
Q 2822 3834 2567 4026 
Q 2313 4219 1838 4219 
Q 1578 4219 1281 4162 
Q 984 4106 628 3988 
L 628 4550 
Q 988 4650 1302 4700 
Q 1616 4750 1894 4750 
Q 2613 4750 3031 4423 
Q 3450 4097 3450 3541 
Q 3450 3153 3228 2886 
Q 3006 2619 2597 2516 
z
" id="DejaVuSans-33" transform="scale(0.015625)"/>
       </defs>
       <use xlink:href="#DejaVuSans-33"/>
       <use x="63.623047" xlink:href="#DejaVuSans-30"/>
       <use x="127.246094" xlink:href="#DejaVuSans-30"/>
      </g>
     </g>
    </g>
    <g id="xtick_5">
     <g id="line2d_5">
      <g>
       <use style="stroke:#000000;stroke-width:0.8;" x="289.728" xlink:href="#m92076d7143" y="307.584"/>
      </g>
     </g>
     <g id="text_5">
      <!-- 400 -->
      <g transform="translate(280.18425 322.182437)scale(0.1 -0.1)">
       <defs>
        <path d="M 2419 4116 
L 825 1625 
L 2419 1625 
L 2419 4116 
z
M 2253 4666 
L 3047 4666 
L 3047 1625 
L 3713 1625 
L 3713 1100 
L 3047 1100 
L 3047 0 
L 2419 0 
L 2419 1100 
L 313 1100 
L 313 1709 
L 2253 4666 
z
" id="DejaVuSans-34" transform="scale(0.015625)"/>
       </defs>
       <use xlink:href="#DejaVuSans-34"/>
       <use x="63.623047" xlink:href="#DejaVuSans-30"/>
       <use x="127.246094" xlink:href="#DejaVuSans-30"/>
      </g>
     </g>
    </g>
    <g id="xtick_6">
     <g id="line2d_6">
      <g>
       <use style="stroke:#000000;stroke-width:0.8;" x="343.837091" xlink:href="#m92076d7143" y="307.584"/>
      </g>
     </g>
     <g id="text_6">
      <!-- 500 -->
      <g transform="translate(334.293341 322.182437)scale(0.1 -0.1)">
       <defs>
        <path d="M 691 4666 
L 3169 4666 
L 3169 4134 
L 1269 4134 
L 1269 2991 
Q 1406 3038 1543 3061 
Q 1681 3084 1819 3084 
Q 2600 3084 3056 2656 
Q 3513 2228 3513 1497 
Q 3513 744 3044 326 
Q 2575 -91 1722 -91 
Q 1428 -91 1123 -41 
Q 819 9 494 109 
L 494 744 
Q 775 591 1075 516 
Q 1375 441 1709 441 
Q 2250 441 2565 725 
Q 2881 1009 2881 1497 
Q 2881 1984 2565 2268 
Q 2250 2553 1709 2553 
Q 1456 2553 1204 2497 
Q 953 2441 691 2322 
L 691 4666 
z
" id="DejaVuSans-35" transform="scale(0.015625)"/>
       </defs>
       <use xlink:href="#DejaVuSans-35"/>
       <use x="63.623047" xlink:href="#DejaVuSans-30"/>
       <use x="127.246094" xlink:href="#DejaVuSans-30"/>
      </g>
     </g>
    </g>
    <g id="xtick_7">
     <g id="line2d_7">
      <g>
       <use style="stroke:#000000;stroke-width:0.8;" x="397.946182" xlink:href="#m92076d7143" y="307.584"/>
      </g>
     </g>
     <g id="text_7">
      <!-- 600 -->
      <g transform="translate(388.402432 322.182437)scale(0.1 -0.1)">
       <defs>
        <path d="M 2113 2584 
Q 1688 2584 1439 2293 
Q 1191 2003 1191 1497 
Q 1191 994 1439 701 
Q 1688 409 2113 409 
Q 2538 409 2786 701 
Q 3034 994 3034 1497 
Q 3034 2003 2786 2293 
Q 2538 2584 2113 2584 
z
M 3366 4563 
L 3366 3988 
Q 3128 4100 2886 4159 
Q 2644 4219 2406 4219 
Q 1781 4219 1451 3797 
Q 1122 3375 1075 2522 
Q 1259 2794 1537 2939 
Q 1816 3084 2150 3084 
Q 2853 3084 3261 2657 
Q 3669 2231 3669 1497 
Q 3669 778 3244 343 
Q 2819 -91 2113 -91 
Q 1303 -91 875 529 
Q 447 1150 447 2328 
Q 447 3434 972 4092 
Q 1497 4750 2381 4750 
Q 2619 4750 2861 4703 
Q 3103 4656 3366 4563 
z
" id="DejaVuSans-36" transform="scale(0.015625)"/>
       </defs>
       <use xlink:href="#DejaVuSans-36"/>
       <use x="63.623047" xlink:href="#DejaVuSans-30"/>
       <use x="127.246094" xlink:href="#DejaVuSans-30"/>
      </g>
     </g>
    </g>
    <g id="text_8">
     <!-- cycle -->
     <g transform="translate(223.236562 335.860562)scale(0.1 -0.1)">
      <defs>
       <path d="M 3122 3366 
L 3122 2828 
Q 2878 2963 2633 3030 
Q 2388 3097 2138 3097 
Q 1578 3097 1268 2742 
Q 959 2388 959 1747 
Q 959 1106 1268 751 
Q 1578 397 2138 397 
Q 2388 397 2633 464 
Q 2878 531 3122 666 
L 3122 134 
Q 2881 22 2623 -34 
Q 2366 -91 2075 -91 
Q 1284 -91 818 406 
Q 353 903 353 1747 
Q 353 2603 823 3093 
Q 1294 3584 2113 3584 
Q 2378 3584 2631 3529 
Q 2884 3475 3122 3366 
z
" id="DejaVuSans-63" transform="scale(0.015625)"/>
       <path d="M 2059 -325 
Q 1816 -950 1584 -1140 
Q 1353 -1331 966 -1331 
L 506 -1331 
L 506 -850 
L 844 -850 
Q 1081 -850 1212 -737 
Q 1344 -625 1503 -206 
L 1606 56 
L 191 3500 
L 800 3500 
L 1894 763 
L 2988 3500 
L 3597 3500 
L 2059 -325 
z
" id="DejaVuSans-79" transform="scale(0.015625)"/>
       <path d="M 603 4863 
L 1178 4863 
L 1178 0 
L 603 0 
L 603 4863 
z
" id="DejaVuSans-6c" transform="scale(0.015625)"/>
       <path d="M 3597 1894 
L 3597 1613 
L 953 1613 
Q 991 1019 1311 708 
Q 1631 397 2203 397 
Q 2534 397 2845 478 
Q 3156 559 3463 722 
L 3463 178 
Q 3153 47 2828 -22 
Q 2503 -91 2169 -91 
Q 1331 -91 842 396 
Q 353 884 353 1716 
Q 353 2575 817 3079 
Q 1281 3584 2069 3584 
Q 2775 3584 3186 3129 
Q 3597 2675 3597 1894 
z
M 3022 2063 
Q 3016 2534 2758 2815 
Q 2500 3097 2075 3097 
Q 1594 3097 1305 2825 
Q 1016 2553 972 2059 
L 3022 2063 
z
" id="DejaVuSans-65" transform="scale(0.015625)"/>
      </defs>
      <use xlink:href="#DejaVuSans-63"/>
      <use x="54.980469" xlink:href="#DejaVuSans-79"/>
      <use x="114.160156" xlink:href="#DejaVuSans-63"/>
      <use x="169.140625" xlink:href="#DejaVuSans-6c"/>
      <use x="196.923828" xlink:href="#DejaVuSans-65"/>
     </g>
    </g>
   </g>
   <g id="matplotlib.axis_2">
    <g id="ytick_1">
     <g id="line2d_8">
      <defs>
       <path d="M 0 0 
L -3.5 0 
" id="m48335edc2c" style="stroke:#000000;stroke-width:0.8;"/>
      </defs>
      <g>
       <use style="stroke:#000000;stroke-width:0.8;" x="57.6" xlink:href="#m48335edc2c" y="285.815659"/>
      </g>
     </g>
     <g id="text_9">
      <!-- 300 -->
      <g transform="translate(31.5125 289.614878)scale(0.1 -0.1)">
       <use xlink:href="#DejaVuSans-33"/>
       <use x="63.623047" xlink:href="#DejaVuSans-30"/>
       <use x="127.246094" xlink:href="#DejaVuSans-30"/>
      </g>
     </g>
    </g>
    <g id="ytick_2">
     <g id="line2d_9">
      <g>
       <use style="stroke:#000000;stroke-width:0.8;" x="57.6" xlink:href="#m48335edc2c" y="249.177548"/>
      </g>
     </g>
     <g id="text_10">
      <!-- 350 -->
      <g transform="translate(31.5125 252.976767)scale(0.1 -0.1)">
       <use xlink:href="#DejaVuSans-33"/>
       <use x="63.623047" xlink:href="#DejaVuSans-35"/>
       <use x="127.246094" xlink:href="#DejaVuSans-30"/>
      </g>
     </g>
    </g>
    <g id="ytick_3">
     <g id="line2d_10">
      <g>
       <use style="stroke:#000000;stroke-width:0.8;" x="57.6" xlink:href="#m48335edc2c" y="212.539437"/>
      </g>
     </g>
     <g id="text_11">
      <!-- 400 -->
      <g transform="translate(31.5125 216.338656)scale(0.1 -0.1)">
       <use xlink:href="#DejaVuSans-34"/>
       <use x="63.623047" xlink:href="#DejaVuSans-30"/>
       <use x="127.246094" xlink:href="#DejaVuSans-30"/>
      </g>
     </g>
    </g>
    <g id="ytick_4">
     <g id="line2d_11">
      <g>
       <use style="stroke:#000000;stroke-width:0.8;" x="57.6" xlink:href="#m48335edc2c" y="175.901327"/>
      </g>
     </g>
     <g id="text_12">
      <!-- 450 -->
      <g transform="translate(31.5125 179.700545)scale(0.1 -0.1)">
       <use xlink:href="#DejaVuSans-34"/>
       <use x="63.623047" xlink:href="#DejaVuSans-35"/>
       <use x="127.246094" xlink:href="#DejaVuSans-30"/>
      </g>
     </g>
    </g>
    <g id="ytick_5">
     <g id="line2d_12">
      <g>
       <use style="stroke:#000000;stroke-width:0.8;" x="57.6" xlink:href="#m48335edc2c" y="139.263216"/>
      </g>
     </g>
     <g id="text_13">
      <!-- 500 -->
      <g transform="translate(31.5125 143.062434)scale(0.1 -0.1)">
       <use xlink:href="#DejaVuSans-35"/>
       <use x="63.623047" xlink:href="#DejaVuSans-30"/>
       <use x="127.246094" xlink:href="#DejaVuSans-30"/>
      </g>
     </g>
    </g>
    <g id="ytick_6">
     <g id="line2d_13">
      <g>
       <use style="stroke:#000000;stroke-width:0.8;" x="57.6" xlink:href="#m48335edc2c" y="102.625105"/>
      </g>
     </g>
     <g id="text_14">
      <!-- 550 -->
      <g transform="translate(31.5125 106.424324)scale(0.1 -0.1)">
       <use xlink:href="#DejaVuSans-35"/>
       <use x="63.623047" xlink:href="#DejaVuSans-35"/>
       <use x="127.246094" xlink:href="#DejaVuSans-30"/>
      </g>
     </g>
    </g>
    <g id="ytick_7">
     <g id="line2d_14">
      <g>
       <use style="stroke:#000000;stroke-width:0.8;" x="57.6" xlink:href="#m48335edc2c" y="65.986994"/>
      </g>
     </g>
     <g id="text_15">
      <!-- 600 -->
      <g transform="translate(31.5125 69.786213)scale(0.1 -0.1)">
       <use xlink:href="#DejaVuSans-36"/>
       <use x="63.623047" xlink:href="#DejaVuSans-30"/>
       <use x="127.246094" xlink:href="#DejaVuSans-30"/>
      </g>
     </g>
    </g>
    <g id="text_16">
     <!-- max_intensity -->
     <g transform="translate(25.154687 209.598312)rotate(-90)scale(0.1 -0.1)">
      <defs>
       <path d="M 3328 2828 
Q 3544 3216 3844 3400 
Q 4144 3584 4550 3584 
Q 5097 3584 5394 3201 
Q 5691 2819 5691 2113 
L 5691 0 
L 5113 0 
L 5113 2094 
Q 5113 2597 4934 2840 
Q 4756 3084 4391 3084 
Q 3944 3084 3684 2787 
Q 3425 2491 3425 1978 
L 3425 0 
L 2847 0 
L 2847 2094 
Q 2847 2600 2669 2842 
Q 2491 3084 2119 3084 
Q 1678 3084 1418 2786 
Q 1159 2488 1159 1978 
L 1159 0 
L 581 0 
L 581 3500 
L 1159 3500 
L 1159 2956 
Q 1356 3278 1631 3431 
Q 1906 3584 2284 3584 
Q 2666 3584 2933 3390 
Q 3200 3197 3328 2828 
z
" id="DejaVuSans-6d" transform="scale(0.015625)"/>
       <path d="M 2194 1759 
Q 1497 1759 1228 1600 
Q 959 1441 959 1056 
Q 959 750 1161 570 
Q 1363 391 1709 391 
Q 2188 391 2477 730 
Q 2766 1069 2766 1631 
L 2766 1759 
L 2194 1759 
z
M 3341 1997 
L 3341 0 
L 2766 0 
L 2766 531 
Q 2569 213 2275 61 
Q 1981 -91 1556 -91 
Q 1019 -91 701 211 
Q 384 513 384 1019 
Q 384 1609 779 1909 
Q 1175 2209 1959 2209 
L 2766 2209 
L 2766 2266 
Q 2766 2663 2505 2880 
Q 2244 3097 1772 3097 
Q 1472 3097 1187 3025 
Q 903 2953 641 2809 
L 641 3341 
Q 956 3463 1253 3523 
Q 1550 3584 1831 3584 
Q 2591 3584 2966 3190 
Q 3341 2797 3341 1997 
z
" id="DejaVuSans-61" transform="scale(0.015625)"/>
       <path d="M 3513 3500 
L 2247 1797 
L 3578 0 
L 2900 0 
L 1881 1375 
L 863 0 
L 184 0 
L 1544 1831 
L 300 3500 
L 978 3500 
L 1906 2253 
L 2834 3500 
L 3513 3500 
z
" id="DejaVuSans-78" transform="scale(0.015625)"/>
       <path d="M 3263 -1063 
L 3263 -1509 
L -63 -1509 
L -63 -1063 
L 3263 -1063 
z
" id="DejaVuSans-5f" transform="scale(0.015625)"/>
       <path d="M 603 3500 
L 1178 3500 
L 1178 0 
L 603 0 
L 603 3500 
z
M 603 4863 
L 1178 4863 
L 1178 4134 
L 603 4134 
L 603 4863 
z
" id="DejaVuSans-69" transform="scale(0.015625)"/>
       <path d="M 3513 2113 
L 3513 0 
L 2938 0 
L 2938 2094 
Q 2938 2591 2744 2837 
Q 2550 3084 2163 3084 
Q 1697 3084 1428 2787 
Q 1159 2491 1159 1978 
L 1159 0 
L 581 0 
L 581 3500 
L 1159 3500 
L 1159 2956 
Q 1366 3272 1645 3428 
Q 1925 3584 2291 3584 
Q 2894 3584 3203 3211 
Q 3513 2838 3513 2113 
z
" id="DejaVuSans-6e" transform="scale(0.015625)"/>
       <path d="M 1172 4494 
L 1172 3500 
L 2356 3500 
L 2356 3053 
L 1172 3053 
L 1172 1153 
Q 1172 725 1289 603 
Q 1406 481 1766 481 
L 2356 481 
L 2356 0 
L 1766 0 
Q 1100 0 847 248 
Q 594 497 594 1153 
L 594 3053 
L 172 3053 
L 172 3500 
L 594 3500 
L 594 4494 
L 1172 4494 
z
" id="DejaVuSans-74" transform="scale(0.015625)"/>
       <path d="M 2834 3397 
L 2834 2853 
Q 2591 2978 2328 3040 
Q 2066 3103 1784 3103 
Q 1356 3103 1142 2972 
Q 928 2841 928 2578 
Q 928 2378 1081 2264 
Q 1234 2150 1697 2047 
L 1894 2003 
Q 2506 1872 2764 1633 
Q 3022 1394 3022 966 
Q 3022 478 2636 193 
Q 2250 -91 1575 -91 
Q 1294 -91 989 -36 
Q 684 19 347 128 
L 347 722 
Q 666 556 975 473 
Q 1284 391 1588 391 
Q 1994 391 2212 530 
Q 2431 669 2431 922 
Q 2431 1156 2273 1281 
Q 2116 1406 1581 1522 
L 1381 1569 
Q 847 1681 609 1914 
Q 372 2147 372 2553 
Q 372 3047 722 3315 
Q 1072 3584 1716 3584 
Q 2034 3584 2315 3537 
Q 2597 3491 2834 3397 
z
" id="DejaVuSans-73" transform="scale(0.015625)"/>
      </defs>
      <use xlink:href="#DejaVuSans-6d"/>
      <use x="97.412109" xlink:href="#DejaVuSans-61"/>
      <use x="158.691406" xlink:href="#DejaVuSans-78"/>
      <use x="217.871094" xlink:href="#DejaVuSans-5f"/>
      <use x="267.871094" xlink:href="#DejaVuSans-69"/>
      <use x="295.654297" xlink:href="#DejaVuSans-6e"/>
      <use x="359.033203" xlink:href="#DejaVuSans-74"/>
      <use x="398.242188" xlink:href="#DejaVuSans-65"/>
      <use x="459.765625" xlink:href="#DejaVuSans-6e"/>
      <use x="523.144531" xlink:href="#DejaVuSans-73"/>
      <use x="575.244141" xlink:href="#DejaVuSans-69"/>
      <use x="603.027344" xlink:href="#DejaVuSans-74"/>
      <use x="642.236328" xlink:href="#DejaVuSans-79"/>
     </g>
    </g>
   </g>
   <g id="line2d_15">
    <path clip-path="url(#p72030eee98)" d="M 73.832727 247.98681 
L 74.373818 257.782684 
L 74.914909 262.338343 
L 75.456 262.699904 
L 75.997091 265.009069 
L 76.538182 264.223278 
L 77.079273 267.761748 
L 77.620364 266.778304 
L 78.161455 268.094384 
L 78.702545 268.181158 
L 79.243636 269.27066 
L 79.784727 269.743098 
L 80.325818 269.179064 
L 81.408 271.305039 
L 81.949091 270.741005 
L 82.490182 272.577731 
L 83.031273 272.515061 
L 83.572364 273.53225 
L 84.113455 271.632854 
L 85.195636 272.934471 
L 85.736727 274.134851 
L 86.277818 273.243002 
L 86.818909 274.626573 
L 87.36 274.13003 
L 87.901091 276.675415 
L 88.442182 275.074908 
L 88.983273 276.299392 
L 89.524364 275.725716 
L 90.065455 277.538339 
L 90.606545 274.163776 
L 91.147636 276.607923 
L 92.229818 274.49159 
L 92.770909 275.489497 
L 93.312 275.243636 
L 93.853091 275.20989 
L 94.394182 277.036975 
L 94.935273 275.127937 
L 95.476364 274.78566 
L 96.017455 276.053531 
L 96.558545 276.926097 
L 97.099636 274.60729 
L 97.640727 276.487403 
L 98.181818 274.626573 
L 98.722909 276.313854 
L 99.264 274.992954 
L 99.805091 277.36479 
L 100.346182 278.362696 
L 100.887273 278.275922 
L 101.428364 277.837229 
L 101.969455 278.825493 
L 102.510545 276.723623 
L 103.051636 278.714615 
L 103.592727 276.892351 
L 104.133818 276.897172 
L 104.674909 277.167137 
L 105.216 276.906813 
L 105.757091 275.320769 
L 106.298182 275.691971 
L 106.839273 274.800122 
L 107.380364 276.82486 
L 107.921455 273.276748 
L 109.003636 273.999868 
L 109.544727 276.111381 
L 110.085818 273.903452 
L 110.626909 272.818771 
L 111.168 273.474401 
L 111.709091 273.739545 
L 112.250182 272.543986 
L 112.791273 273.493684 
L 113.332364 273.416551 
L 113.873455 275.224353 
L 114.414545 271.724449 
L 114.955636 273.276748 
L 115.496727 270.586739 
L 116.037818 273.773291 
L 116.578909 271.536438 
L 117.12 271.266473 
L 117.661091 272.38972 
L 118.202182 269.521342 
L 118.743273 269.709353 
L 119.284364 268.778938 
L 120.366545 270.191433 
L 120.907636 268.836787 
L 121.448727 268.73073 
L 121.989818 271.121848 
L 122.530909 268.740371 
L 123.072 267.564095 
L 123.613091 267.646049 
L 124.154182 269.603295 
L 124.695273 269.309226 
L 125.236364 270.263745 
L 125.777455 269.323689 
L 126.318545 268.725909 
L 126.859636 269.289943 
L 127.400727 268.557181 
L 127.941818 269.516521 
L 128.482909 269.530983 
L 129.565091 268.817504 
L 130.106182 266.951853 
L 130.647273 266.787946 
L 131.188364 269.945572 
L 132.270545 265.765935 
L 132.811636 267.019344 
L 133.352727 267.05309 
L 133.893818 266.175703 
L 134.434909 265.886455 
L 134.976 265.365808 
L 135.517091 264.141324 
L 136.058182 263.321787 
L 136.599273 263.210909 
L 137.140364 261.663431 
L 137.681455 261.11868 
L 138.222545 258.703457 
L 139.304727 257.069205 
L 139.845818 256.842627 
L 140.386909 254.533462 
L 140.928 254.658803 
L 141.469091 252.166447 
L 142.010182 252.320713 
L 142.551273 250.353825 
L 143.092364 250.681639 
L 143.633455 255.825437 
L 144.174545 249.837999 
L 144.715636 248.859375 
L 145.256727 251.04802 
L 145.797818 250.320079 
L 146.338909 246.959978 
L 146.88 245.600512 
L 147.421091 251.674725 
L 147.962182 244.14945 
L 148.503273 248.570127 
L 149.044364 246.227216 
L 149.585455 244.756871 
L 150.126545 241.09306 
L 150.667636 241.473903 
L 151.208727 248.160359 
L 151.749818 240.572413 
L 152.290909 240.066229 
L 152.832 238.489826 
L 153.373091 239.531119 
L 153.914182 238.340381 
L 154.455273 235.505748 
L 154.996364 236.797724 
L 155.537455 235.202037 
L 156.078545 233.235149 
L 156.619636 233.644918 
L 157.160727 230.974192 
L 157.701818 229.069975 
L 158.242909 226.138926 
L 158.784 225.835215 
L 159.325091 225.251898 
L 159.866182 224.369691 
L 160.407273 222.354595 
L 160.948364 222.099092 
L 161.489455 220.190054 
L 162.030545 219.953834 
L 162.571636 218.772737 
L 163.112727 219.201789 
L 163.653818 217.254184 
L 164.194909 218.396714 
L 164.736 216.314127 
L 165.277091 216.531063 
L 165.818182 216.024879 
L 166.359273 211.797034 
L 166.900364 213.33487 
L 167.982545 209.695163 
L 168.523636 210.823231 
L 169.064727 207.776483 
L 169.605818 208.089835 
L 170.146909 204.334429 
L 170.688 204.238013 
L 171.229091 204.271758 
L 172.311273 201.205727 
L 172.852364 201.548004 
L 173.393455 201.017716 
L 173.934545 198.212008 
L 174.475636 194.533734 
L 175.016727 194.678358 
L 175.557818 197.86491 
L 176.098909 192.865736 
L 176.64 192.981435 
L 177.181091 193.3671 
L 178.263273 191.920858 
L 178.804364 189.481532 
L 179.345455 190.267323 
L 180.427636 181.695933 
L 180.968727 190.19019 
L 181.509818 180.943888 
L 182.050909 183.53748 
L 182.592 183.412139 
L 183.133091 182.322638 
L 183.674182 182.168372 
L 184.215273 182.380487 
L 184.756364 180.408778 
L 185.297455 177.863394 
L 186.379636 175.559049 
L 186.920727 176.614806 
L 187.461818 176.002563 
L 188.002909 173.220959 
L 188.544 168.096445 
L 189.085091 168.578525 
L 189.626182 165.073801 
L 190.167273 162.663399 
L 190.708364 161.120741 
L 191.249455 162.128289 
L 192.331636 159.042975 
L 193.413818 158.464478 
L 193.954909 159.390073 
L 194.496 156.728989 
L 195.037091 155.798574 
L 195.578182 151.074186 
L 196.119273 161.583538 
L 196.660364 154.45839 
L 197.201455 151.93711 
L 197.742545 153.701524 
L 198.283636 152.192612 
L 198.824727 149.333875 
L 199.365818 150.727088 
L 199.906909 146.532988 
L 200.448 145.356712 
L 200.989091 147.612848 
L 201.530182 146.205174 
L 202.071273 143.659789 
L 202.612364 142.126773 
L 203.153455 143.809234 
L 203.694545 143.42357 
L 204.235636 142.46423 
L 204.776727 139.296961 
L 205.317818 141.340982 
L 205.858909 139.494614 
L 206.4 139.499435 
L 207.482182 135.695821 
L 208.023273 136.94923 
L 208.564364 134.842538 
L 209.105455 131.945235 
L 209.646545 131.863281 
L 210.187636 131.275143 
L 210.728727 131.622241 
L 211.269818 129.21666 
L 211.810909 130.103688 
L 212.352 128.083771 
L 212.893091 129.87711 
L 213.434182 126.994269 
L 213.975273 126.955703 
L 214.516364 124.622434 
L 215.057455 123.754689 
L 215.598545 120.457259 
L 216.139636 120.22586 
L 216.680727 121.561223 
L 217.221818 119.415965 
L 217.762909 116.104073 
L 218.304 117.16465 
L 218.845091 113.717775 
L 219.386182 113.303186 
L 219.927273 110.198588 
L 220.468364 111.606263 
L 221.009455 110.082889 
L 221.550545 111.239882 
L 222.091636 104.307565 
L 222.632727 106.226245 
L 223.173818 104.567889 
L 223.714909 101.617557 
L 224.256 100.272552 
L 224.797091 99.245721 
L 225.338182 97.38007 
L 225.879273 99.626565 
L 226.420364 94.651495 
L 226.961455 97.365608 
L 227.502545 92.699069 
L 228.043636 91.633671 
L 228.584727 86.82733 
L 229.125818 89.141316 
L 229.666909 88.717085 
L 230.208 87.454034 
L 230.749091 84.870083 
L 231.290182 86.335608 
L 231.831273 82.049913 
L 232.372364 83.332247 
L 232.913455 80.603672 
L 233.454545 80.849533 
L 233.995636 78.680171 
L 234.536727 84.783309 
L 235.077818 80.439764 
L 235.618909 77.725652 
L 236.16 81.336434 
L 236.701091 253.043833 
L 237.783273 262.266031 
L 238.324364 264.469139 
L 238.865455 265.905738 
L 239.406545 261.301871 
L 239.947636 262.777037 
L 240.488727 262.150332 
L 241.029818 264.435393 
L 241.570909 264.681254 
L 242.112 265.871993 
L 242.653091 266.580651 
L 243.194182 266.517981 
L 243.735273 268.108846 
L 244.276364 267.057911 
L 244.817455 268.022071 
L 245.358545 267.978684 
L 245.899636 269.232093 
L 246.440727 271.570183 
L 246.981818 269.482775 
L 247.522909 269.280301 
L 248.605091 271.652137 
L 249.146182 274.713347 
L 249.687273 271.787119 
L 250.228364 273.686516 
L 250.769455 274.911 
L 251.310545 274.284296 
L 251.851636 275.229174 
L 252.392727 274.766376 
L 252.933818 278.32413 
L 253.474909 276.70434 
L 254.016 276.940559 
L 254.557091 277.036975 
L 255.098182 278.218072 
L 255.639273 278.20361 
L 256.180364 278.642303 
L 256.721455 277.138212 
L 257.262545 278.410904 
L 257.803636 277.162316 
L 258.344727 277.302119 
L 258.885818 277.162316 
L 259.426909 277.205703 
L 259.968 275.349694 
L 260.509091 277.075541 
L 261.050182 276.000502 
L 261.591273 278.454291 
L 262.132364 276.063173 
L 262.673455 276.342779 
L 263.214545 276.453658 
L 263.755636 277.509414 
L 264.296727 276.16923 
L 264.837818 276.419912 
L 265.378909 277.991494 
L 265.92 277.403356 
L 266.461091 276.574178 
L 267.002182 276.593461 
L 267.543273 276.935738 
L 268.084364 278.589274 
L 268.625455 276.256005 
L 269.166545 277.649217 
L 269.707636 284.181407 
L 270.248727 279.071354 
L 270.789818 280.397075 
L 271.330909 282.677316 
L 271.872 281.896346 
L 272.954182 281.052705 
L 274.036364 282.846044 
L 274.577455 282.778553 
L 275.118545 283.511315 
L 275.659636 283.087084 
L 276.200727 282.156669 
L 276.741818 282.566437 
L 277.282909 282.470021 
L 277.824 282.696599 
L 278.365091 283.385974 
L 278.906182 282.899073 
L 279.447273 283.993395 
L 279.988364 284.711695 
L 280.529455 281.62156 
L 281.070545 281.74208 
L 281.611636 281.578172 
L 282.152727 282.498946 
L 282.693818 278.463933 
L 283.234909 278.815852 
L 283.776 278.112014 
L 284.317091 278.483216 
L 284.858182 276.969484 
L 285.399273 277.504593 
L 285.940364 276.376525 
L 286.481455 277.528697 
L 287.022545 275.783566 
L 287.563636 277.326223 
L 288.104727 279.510048 
L 288.645818 281.057526 
L 289.186909 280.271735 
L 289.728 281.872242 
L 290.269091 282.817119 
L 290.810182 281.26482 
L 291.351273 282.436276 
L 291.892364 284.007858 
L 292.433455 281.433548 
L 292.974545 281.645664 
L 293.515636 282.026507 
L 294.056727 281.100913 
L 294.597818 281.62156 
L 295.138909 281.973478 
L 295.68 281.414265 
L 296.221091 279.712521 
L 296.762182 279.297932 
L 297.303273 279.490764 
L 297.844364 281.308207 
L 298.385455 275.306306 
L 298.926545 275.499139 
L 299.467636 274.959208 
L 300.008727 275.041162 
L 300.549818 274.043256 
L 301.090909 275.489497 
L 301.632 275.113474 
L 302.714182 271.642495 
L 303.255273 272.413824 
L 303.796364 273.860065 
L 304.337455 271.305039 
L 305.960727 269.068186 
L 306.501818 269.420105 
L 307.042909 269.33333 
L 307.584 268.349886 
L 308.125091 269.415284 
L 308.666182 266.373356 
L 309.207273 265.91538 
L 309.748364 264.931936 
L 310.289455 265.476687 
L 310.830545 264.136503 
L 311.371636 264.199174 
L 311.912727 263.032539 
L 312.453818 261.354899 
L 312.994909 262.25639 
L 313.536 261.788772 
L 314.077091 260.299143 
L 314.618182 259.310878 
L 315.159273 259.889375 
L 315.700364 259.73993 
L 316.241455 257.368094 
L 316.782545 261.851442 
L 317.323636 259.870092 
L 317.864727 260.477513 
L 318.405818 261.369362 
L 318.946909 256.948685 
L 319.488 259.32052 
L 320.029091 254.422583 
L 321.111273 252.66781 
L 321.652364 254.080306 
L 322.193455 252.503903 
L 322.734545 251.843453 
L 323.275636 251.636158 
L 323.816727 251.120332 
L 324.357818 250.430957 
L 324.898909 247.962706 
L 325.44 247.644533 
L 326.522182 247.201019 
L 327.063273 246.641805 
L 327.604364 245.041298 
L 328.145455 244.944882 
L 328.686545 244.376027 
L 329.768727 240.789349 
L 330.309818 241.536574 
L 330.850909 241.252146 
L 331.392 241.777614 
L 331.933091 237.679931 
L 332.474182 238.296994 
L 333.015273 236.074603 
L 333.556364 236.672383 
L 334.097455 234.55605 
L 334.638545 235.062234 
L 335.179636 234.719957 
L 335.720727 234.671749 
L 336.261818 232.145648 
L 336.802909 232.459 
L 337.344 231.538226 
L 337.885091 229.957003 
L 338.426182 228.751802 
L 338.967273 230.646378 
L 339.508364 230.014852 
L 340.049455 227.855132 
L 340.590545 226.389608 
L 341.672727 226.100359 
L 342.213818 225.92681 
L 342.754909 224.408257 
L 343.296 223.76709 
L 343.837091 224.721609 
L 344.378182 222.648664 
L 344.919273 221.756815 
L 345.460364 221.467567 
L 346.001455 219.707973 
L 346.542545 219.45247 
L 347.083636 217.422912 
L 348.165818 218.753454 
L 348.706909 216.039341 
L 349.248 215.894717 
L 349.789091 216.087549 
L 350.330182 215.089643 
L 350.871273 212.346605 
L 351.412364 212.423738 
L 351.953455 211.95612 
L 352.494545 211.213716 
L 353.035636 211.208896 
L 353.576727 208.952759 
L 354.117818 208.827418 
L 354.658909 208.528528 
L 355.2 209.044355 
L 355.741091 205.930115 
L 356.282182 205.742104 
L 356.823273 206.629132 
L 357.905455 204.483874 
L 358.446545 203.765574 
L 358.987636 202.642327 
L 359.528727 204.329608 
L 360.069818 204.609215 
L 360.610909 200.111405 
L 361.152 201.851715 
L 362.234182 199.287047 
L 362.775273 198.809787 
L 363.316364 199.311151 
L 363.857455 199.089394 
L 364.398545 198.718192 
L 364.939636 195.71001 
L 365.480727 196.751304 
L 366.021818 195.126693 
L 367.104 196.384923 
L 367.645091 193.935955 
L 368.186182 193.598498 
L 368.727273 193.477978 
L 369.268364 193.699735 
L 369.809455 193.06821 
L 370.350545 189.423682 
L 370.891636 191.665356 
L 371.432727 195.729294 
L 371.973818 191.795518 
L 372.514909 190.440872 
L 373.056 189.467069 
L 373.597091 193.212834 
L 374.138182 193.386383 
L 374.679273 193.772047 
L 375.761455 190.744582 
L 376.302545 192.190823 
L 376.843636 190.571033 
L 377.925818 192.542742 
L 378.466909 191.380928 
L 379.008 188.184735 
L 379.549091 188.522192 
L 380.090182 194.895295 
L 380.631273 187.871383 
L 381.172364 185.292253 
L 381.713455 185.909316 
L 382.795636 184.371479 
L 383.336727 183.961711 
L 383.877818 182.973446 
L 384.418909 182.27443 
L 384.96 180.751055 
L 385.501091 178.326191 
L 386.042182 180.235229 
L 386.583273 177.607891 
L 387.124364 179.145728 
L 387.665455 174.228508 
L 388.206545 174.103167 
L 388.747636 172.965457 
L 389.288727 169.619819 
L 389.829818 168.347127 
L 390.370909 165.030413 
L 390.912 163.526323 
L 391.453091 163.237074 
L 391.994182 161.332857 
L 392.535273 162.002948 
L 393.076364 175.477096 
L 393.617455 162.292197 
L 394.158545 166.722516 
L 394.699636 165.363049 
L 395.781818 164.856864 
L 396.322909 161.260545 
L 396.864 163.053884 
L 397.405091 164.201235 
L 397.946182 162.996034 
L 398.487273 160.744719 
L 398.487273 160.744719 
" style="fill:none;stroke:#1f77b4;stroke-linecap:square;stroke-width:1.5;"/>
   </g>
   <g id="patch_3">
    <path d="M 57.6 307.584 
L 57.6 41.472 
" style="fill:none;stroke:#000000;stroke-linecap:square;stroke-linejoin:miter;stroke-width:0.8;"/>
   </g>
   <g id="patch_4">
    <path d="M 414.72 307.584 
L 414.72 41.472 
" style="fill:none;stroke:#000000;stroke-linecap:square;stroke-linejoin:miter;stroke-width:0.8;"/>
   </g>
   <g id="patch_5">
    <path d="M 57.6 307.584 
L 414.72 307.584 
" style="fill:none;stroke:#000000;stroke-linecap:square;stroke-linejoin:miter;stroke-width:0.8;"/>
   </g>
   <g id="patch_6">
    <path d="M 57.6 41.472 
L 414.72 41.472 
" style="fill:none;stroke:#000000;stroke-linecap:square;stroke-linejoin:miter;stroke-width:0.8;"/>
   </g>
   <g id="text_17">
    <!-- Lane 1 -->
    <g transform="translate(215.92125 35.472)scale(0.12 -0.12)">
     <defs>
      <path d="M 628 4666 
L 1259 4666 
L 1259 531 
L 3531 531 
L 3531 0 
L 628 0 
L 628 4666 
z
" id="DejaVuSans-4c" transform="scale(0.015625)"/>
      <path id="DejaVuSans-20" transform="scale(0.015625)"/>
     </defs>
     <use xlink:href="#DejaVuSans-4c"/>
     <use x="55.712891" xlink:href="#DejaVuSans-61"/>
     <use x="116.992188" xlink:href="#DejaVuSans-6e"/>
     <use x="180.371094" xlink:href="#DejaVuSans-65"/>
     <use x="241.894531" xlink:href="#DejaVuSans-20"/>
     <use x="273.681641" xlink:href="#DejaVuSans-31"/>
    </g>
   </g>
  </g>
 </g>
 <defs>
  <clipPath id="p72030eee98">
   <rect height="266.112" width="357.12" x="57.6" y="41.472"/>
  </clipPath>
 </defs>
</svg>
