<?xml version="1.0" encoding="utf-8" standalone="no"?>
<!DOCTYPE svg PUBLIC "-//W3C//DTD SVG 1.1//EN"
  "http://www.w3.org/Graphics/SVG/1.1/DTD/svg11.dtd">
<svg height="345.6pt" version="1.1" viewBox="0 0 460.8 345.6" width="460.8pt" xmlns="http://www.w3.org/2000/svg" xmlns:xlink="http://www.w3.org/1999/xlink">
 <metadata>
  <rdf:RDF xmlns:cc="http://creativecommons.org/ns#" xmlns:dc="http://purl.org/dc/elements/1.1/" xmlns:rdf="http://www.w3.org/1999/02/22-rdf-syntax-ns#">
   <cc:Work>
    <dc:type rdf:resource="http://purl.org/dc/dcmitype/StillImage"/>
    <dc:date>2021-06-18T21:48:57.969716</dc:date>
    <dc:format>image/svg+xml</dc:format>
    <dc:creator>
     <cc:Agent>
      <dc:title>Matplotlib v3.4.2, https://matplotlib.org/</dc:title>
     </cc:Agent>
    </dc:creator>
   </cc:Work>
  </rdf:RDF>
 </metadata>
 <defs>
  <style type="text/css">*{stroke-linecap:butt;stroke-linejoin:round;}</style>
 </defs>
 <g id="figure_1">
  <g id="patch_1">
   <path d="M 0 345.6 
L 460.8 345.6 
L 460.8 0 
L 0 0 
z
" style="fill:#ffffff;"/>
  </g>
  <g id="axes_1">
   <g id="patch_2">
    <path d="M 57.6 307.584 
L 414.72 307.584 
L 414.72 41.472 
L 57.6 41.472 
z
" style="fill:#ffffff;"/>
   </g>
   <g id="matplotlib.axis_1">
    <g id="xtick_1">
     <g id="line2d_1">
      <defs>
       <path d="M 0 0 
L 0 3.5 
" id="md8d08ef811" style="stroke:#000000;stroke-width:0.8;"/>
      </defs>
      <g>
       <use style="stroke:#000000;stroke-width:0.8;" x="57.6" xlink:href="#md8d08ef811" y="307.584"/>
      </g>
     </g>
     <g id="text_1">
      <!-- 0 -->
      <g transform="translate(54.41875 322.182437)scale(0.1 -0.1)">
       <defs>
        <path d="M 2034 4250 
Q 1547 4250 1301 3770 
Q 1056 3291 1056 2328 
Q 1056 1369 1301 889 
Q 1547 409 2034 409 
Q 2525 409 2770 889 
Q 3016 1369 3016 2328 
Q 3016 3291 2770 3770 
Q 2525 4250 2034 4250 
z
M 2034 4750 
Q 2819 4750 3233 4129 
Q 3647 3509 3647 2328 
Q 3647 1150 3233 529 
Q 2819 -91 2034 -91 
Q 1250 -91 836 529 
Q 422 1150 422 2328 
Q 422 3509 836 4129 
Q 1250 4750 2034 4750 
z
" id="DejaVuSans-30" transform="scale(0.015625)"/>
       </defs>
       <use xlink:href="#DejaVuSans-30"/>
      </g>
     </g>
    </g>
    <g id="xtick_2">
     <g id="line2d_2">
      <g>
       <use style="stroke:#000000;stroke-width:0.8;" x="116.725828" xlink:href="#md8d08ef811" y="307.584"/>
      </g>
     </g>
     <g id="text_2">
      <!-- 100 -->
      <g transform="translate(107.182078 322.182437)scale(0.1 -0.1)">
       <defs>
        <path d="M 794 531 
L 1825 531 
L 1825 4091 
L 703 3866 
L 703 4441 
L 1819 4666 
L 2450 4666 
L 2450 531 
L 3481 531 
L 3481 0 
L 794 0 
L 794 531 
z
" id="DejaVuSans-31" transform="scale(0.015625)"/>
       </defs>
       <use xlink:href="#DejaVuSans-31"/>
       <use x="63.623047" xlink:href="#DejaVuSans-30"/>
       <use x="127.246094" xlink:href="#DejaVuSans-30"/>
      </g>
     </g>
    </g>
    <g id="xtick_3">
     <g id="line2d_3">
      <g>
       <use style="stroke:#000000;stroke-width:0.8;" x="175.851656" xlink:href="#md8d08ef811" y="307.584"/>
      </g>
     </g>
     <g id="text_3">
      <!-- 200 -->
      <g transform="translate(166.307906 322.182437)scale(0.1 -0.1)">
       <defs>
        <path d="M 1228 531 
L 3431 531 
L 3431 0 
L 469 0 
L 469 531 
Q 828 903 1448 1529 
Q 2069 2156 2228 2338 
Q 2531 2678 2651 2914 
Q 2772 3150 2772 3378 
Q 2772 3750 2511 3984 
Q 2250 4219 1831 4219 
Q 1534 4219 1204 4116 
Q 875 4013 500 3803 
L 500 4441 
Q 881 4594 1212 4672 
Q 1544 4750 1819 4750 
Q 2544 4750 2975 4387 
Q 3406 4025 3406 3419 
Q 3406 3131 3298 2873 
Q 3191 2616 2906 2266 
Q 2828 2175 2409 1742 
Q 1991 1309 1228 531 
z
" id="DejaVuSans-32" transform="scale(0.015625)"/>
       </defs>
       <use xlink:href="#DejaVuSans-32"/>
       <use x="63.623047" xlink:href="#DejaVuSans-30"/>
       <use x="127.246094" xlink:href="#DejaVuSans-30"/>
      </g>
     </g>
    </g>
    <g id="xtick_4">
     <g id="line2d_4">
      <g>
       <use style="stroke:#000000;stroke-width:0.8;" x="234.977483" xlink:href="#md8d08ef811" y="307.584"/>
      </g>
     </g>
     <g id="text_4">
      <!-- 300 -->
      <g transform="translate(225.433733 322.182437)scale(0.1 -0.1)">
       <defs>
        <path d="M 2597 2516 
Q 3050 2419 3304 2112 
Q 3559 1806 3559 1356 
Q 3559 666 3084 287 
Q 2609 -91 1734 -91 
Q 1441 -91 1130 -33 
Q 819 25 488 141 
L 488 750 
Q 750 597 1062 519 
Q 1375 441 1716 441 
Q 2309 441 2620 675 
Q 2931 909 2931 1356 
Q 2931 1769 2642 2001 
Q 2353 2234 1838 2234 
L 1294 2234 
L 1294 2753 
L 1863 2753 
Q 2328 2753 2575 2939 
Q 2822 3125 2822 3475 
Q 2822 3834 2567 4026 
Q 2313 4219 1838 4219 
Q 1578 4219 1281 4162 
Q 984 4106 628 3988 
L 628 4550 
Q 988 4650 1302 4700 
Q 1616 4750 1894 4750 
Q 2613 4750 3031 4423 
Q 3450 4097 3450 3541 
Q 3450 3153 3228 2886 
Q 3006 2619 2597 2516 
z
" id="DejaVuSans-33" transform="scale(0.015625)"/>
       </defs>
       <use xlink:href="#DejaVuSans-33"/>
       <use x="63.623047" xlink:href="#DejaVuSans-30"/>
       <use x="127.246094" xlink:href="#DejaVuSans-30"/>
      </g>
     </g>
    </g>
    <g id="xtick_5">
     <g id="line2d_5">
      <g>
       <use style="stroke:#000000;stroke-width:0.8;" x="294.103311" xlink:href="#md8d08ef811" y="307.584"/>
      </g>
     </g>
     <g id="text_5">
      <!-- 400 -->
      <g transform="translate(284.559561 322.182437)scale(0.1 -0.1)">
       <defs>
        <path d="M 2419 4116 
L 825 1625 
L 2419 1625 
L 2419 4116 
z
M 2253 4666 
L 3047 4666 
L 3047 1625 
L 3713 1625 
L 3713 1100 
L 3047 1100 
L 3047 0 
L 2419 0 
L 2419 1100 
L 313 1100 
L 313 1709 
L 2253 4666 
z
" id="DejaVuSans-34" transform="scale(0.015625)"/>
       </defs>
       <use xlink:href="#DejaVuSans-34"/>
       <use x="63.623047" xlink:href="#DejaVuSans-30"/>
       <use x="127.246094" xlink:href="#DejaVuSans-30"/>
      </g>
     </g>
    </g>
    <g id="xtick_6">
     <g id="line2d_6">
      <g>
       <use style="stroke:#000000;stroke-width:0.8;" x="353.229139" xlink:href="#md8d08ef811" y="307.584"/>
      </g>
     </g>
     <g id="text_6">
      <!-- 500 -->
      <g transform="translate(343.685389 322.182437)scale(0.1 -0.1)">
       <defs>
        <path d="M 691 4666 
L 3169 4666 
L 3169 4134 
L 1269 4134 
L 1269 2991 
Q 1406 3038 1543 3061 
Q 1681 3084 1819 3084 
Q 2600 3084 3056 2656 
Q 3513 2228 3513 1497 
Q 3513 744 3044 326 
Q 2575 -91 1722 -91 
Q 1428 -91 1123 -41 
Q 819 9 494 109 
L 494 744 
Q 775 591 1075 516 
Q 1375 441 1709 441 
Q 2250 441 2565 725 
Q 2881 1009 2881 1497 
Q 2881 1984 2565 2268 
Q 2250 2553 1709 2553 
Q 1456 2553 1204 2497 
Q 953 2441 691 2322 
L 691 4666 
z
" id="DejaVuSans-35" transform="scale(0.015625)"/>
       </defs>
       <use xlink:href="#DejaVuSans-35"/>
       <use x="63.623047" xlink:href="#DejaVuSans-30"/>
       <use x="127.246094" xlink:href="#DejaVuSans-30"/>
      </g>
     </g>
    </g>
    <g id="xtick_7">
     <g id="line2d_7">
      <g>
       <use style="stroke:#000000;stroke-width:0.8;" x="412.354967" xlink:href="#md8d08ef811" y="307.584"/>
      </g>
     </g>
     <g id="text_7">
      <!-- 600 -->
      <g transform="translate(402.811217 322.182437)scale(0.1 -0.1)">
       <defs>
        <path d="M 2113 2584 
Q 1688 2584 1439 2293 
Q 1191 2003 1191 1497 
Q 1191 994 1439 701 
Q 1688 409 2113 409 
Q 2538 409 2786 701 
Q 3034 994 3034 1497 
Q 3034 2003 2786 2293 
Q 2538 2584 2113 2584 
z
M 3366 4563 
L 3366 3988 
Q 3128 4100 2886 4159 
Q 2644 4219 2406 4219 
Q 1781 4219 1451 3797 
Q 1122 3375 1075 2522 
Q 1259 2794 1537 2939 
Q 1816 3084 2150 3084 
Q 2853 3084 3261 2657 
Q 3669 2231 3669 1497 
Q 3669 778 3244 343 
Q 2819 -91 2113 -91 
Q 1303 -91 875 529 
Q 447 1150 447 2328 
Q 447 3434 972 4092 
Q 1497 4750 2381 4750 
Q 2619 4750 2861 4703 
Q 3103 4656 3366 4563 
z
" id="DejaVuSans-36" transform="scale(0.015625)"/>
       </defs>
       <use xlink:href="#DejaVuSans-36"/>
       <use x="63.623047" xlink:href="#DejaVuSans-30"/>
       <use x="127.246094" xlink:href="#DejaVuSans-30"/>
      </g>
     </g>
    </g>
    <g id="text_8">
     <!-- Cycle -->
     <g transform="translate(222.494375 335.860562)scale(0.1 -0.1)">
      <defs>
       <path d="M 4122 4306 
L 4122 3641 
Q 3803 3938 3442 4084 
Q 3081 4231 2675 4231 
Q 1875 4231 1450 3742 
Q 1025 3253 1025 2328 
Q 1025 1406 1450 917 
Q 1875 428 2675 428 
Q 3081 428 3442 575 
Q 3803 722 4122 1019 
L 4122 359 
Q 3791 134 3420 21 
Q 3050 -91 2638 -91 
Q 1578 -91 968 557 
Q 359 1206 359 2328 
Q 359 3453 968 4101 
Q 1578 4750 2638 4750 
Q 3056 4750 3426 4639 
Q 3797 4528 4122 4306 
z
" id="DejaVuSans-43" transform="scale(0.015625)"/>
       <path d="M 2059 -325 
Q 1816 -950 1584 -1140 
Q 1353 -1331 966 -1331 
L 506 -1331 
L 506 -850 
L 844 -850 
Q 1081 -850 1212 -737 
Q 1344 -625 1503 -206 
L 1606 56 
L 191 3500 
L 800 3500 
L 1894 763 
L 2988 3500 
L 3597 3500 
L 2059 -325 
z
" id="DejaVuSans-79" transform="scale(0.015625)"/>
       <path d="M 3122 3366 
L 3122 2828 
Q 2878 2963 2633 3030 
Q 2388 3097 2138 3097 
Q 1578 3097 1268 2742 
Q 959 2388 959 1747 
Q 959 1106 1268 751 
Q 1578 397 2138 397 
Q 2388 397 2633 464 
Q 2878 531 3122 666 
L 3122 134 
Q 2881 22 2623 -34 
Q 2366 -91 2075 -91 
Q 1284 -91 818 406 
Q 353 903 353 1747 
Q 353 2603 823 3093 
Q 1294 3584 2113 3584 
Q 2378 3584 2631 3529 
Q 2884 3475 3122 3366 
z
" id="DejaVuSans-63" transform="scale(0.015625)"/>
       <path d="M 603 4863 
L 1178 4863 
L 1178 0 
L 603 0 
L 603 4863 
z
" id="DejaVuSans-6c" transform="scale(0.015625)"/>
       <path d="M 3597 1894 
L 3597 1613 
L 953 1613 
Q 991 1019 1311 708 
Q 1631 397 2203 397 
Q 2534 397 2845 478 
Q 3156 559 3463 722 
L 3463 178 
Q 3153 47 2828 -22 
Q 2503 -91 2169 -91 
Q 1331 -91 842 396 
Q 353 884 353 1716 
Q 353 2575 817 3079 
Q 1281 3584 2069 3584 
Q 2775 3584 3186 3129 
Q 3597 2675 3597 1894 
z
M 3022 2063 
Q 3016 2534 2758 2815 
Q 2500 3097 2075 3097 
Q 1594 3097 1305 2825 
Q 1016 2553 972 2059 
L 3022 2063 
z
" id="DejaVuSans-65" transform="scale(0.015625)"/>
      </defs>
      <use xlink:href="#DejaVuSans-43"/>
      <use x="69.824219" xlink:href="#DejaVuSans-79"/>
      <use x="129.003906" xlink:href="#DejaVuSans-63"/>
      <use x="183.984375" xlink:href="#DejaVuSans-6c"/>
      <use x="211.767578" xlink:href="#DejaVuSans-65"/>
     </g>
    </g>
   </g>
   <g id="matplotlib.axis_2">
    <g id="ytick_1">
     <g id="line2d_8">
      <defs>
       <path d="M 0 0 
L -3.5 0 
" id="me164cced7a" style="stroke:#000000;stroke-width:0.8;"/>
      </defs>
      <g>
       <use style="stroke:#000000;stroke-width:0.8;" x="57.6" xlink:href="#me164cced7a" y="307.584"/>
      </g>
     </g>
     <g id="text_9">
      <!-- 0 -->
      <g transform="translate(44.2375 311.383219)scale(0.1 -0.1)">
       <use xlink:href="#DejaVuSans-30"/>
      </g>
     </g>
    </g>
    <g id="ytick_2">
     <g id="line2d_9">
      <g>
       <use style="stroke:#000000;stroke-width:0.8;" x="57.6" xlink:href="#me164cced7a" y="254.3616"/>
      </g>
     </g>
     <g id="text_10">
      <!-- 10 -->
      <g transform="translate(37.875 258.160819)scale(0.1 -0.1)">
       <use xlink:href="#DejaVuSans-31"/>
       <use x="63.623047" xlink:href="#DejaVuSans-30"/>
      </g>
     </g>
    </g>
    <g id="ytick_3">
     <g id="line2d_10">
      <g>
       <use style="stroke:#000000;stroke-width:0.8;" x="57.6" xlink:href="#me164cced7a" y="201.1392"/>
      </g>
     </g>
     <g id="text_11">
      <!-- 20 -->
      <g transform="translate(37.875 204.938419)scale(0.1 -0.1)">
       <use xlink:href="#DejaVuSans-32"/>
       <use x="63.623047" xlink:href="#DejaVuSans-30"/>
      </g>
     </g>
    </g>
    <g id="ytick_4">
     <g id="line2d_11">
      <g>
       <use style="stroke:#000000;stroke-width:0.8;" x="57.6" xlink:href="#me164cced7a" y="147.9168"/>
      </g>
     </g>
     <g id="text_12">
      <!-- 30 -->
      <g transform="translate(37.875 151.716019)scale(0.1 -0.1)">
       <use xlink:href="#DejaVuSans-33"/>
       <use x="63.623047" xlink:href="#DejaVuSans-30"/>
      </g>
     </g>
    </g>
    <g id="ytick_5">
     <g id="line2d_12">
      <g>
       <use style="stroke:#000000;stroke-width:0.8;" x="57.6" xlink:href="#me164cced7a" y="94.6944"/>
      </g>
     </g>
     <g id="text_13">
      <!-- 40 -->
      <g transform="translate(37.875 98.493619)scale(0.1 -0.1)">
       <use xlink:href="#DejaVuSans-34"/>
       <use x="63.623047" xlink:href="#DejaVuSans-30"/>
      </g>
     </g>
    </g>
    <g id="ytick_6">
     <g id="line2d_13">
      <g>
       <use style="stroke:#000000;stroke-width:0.8;" x="57.6" xlink:href="#me164cced7a" y="41.472"/>
      </g>
     </g>
     <g id="text_14">
      <!-- 50 -->
      <g transform="translate(37.875 45.271219)scale(0.1 -0.1)">
       <use xlink:href="#DejaVuSans-35"/>
       <use x="63.623047" xlink:href="#DejaVuSans-30"/>
      </g>
     </g>
    </g>
    <g id="text_15">
     <!-- % Base -->
     <g transform="translate(31.795312 193.043625)rotate(-90)scale(0.1 -0.1)">
      <defs>
       <path d="M 4653 2053 
Q 4381 2053 4226 1822 
Q 4072 1591 4072 1178 
Q 4072 772 4226 539 
Q 4381 306 4653 306 
Q 4919 306 5073 539 
Q 5228 772 5228 1178 
Q 5228 1588 5073 1820 
Q 4919 2053 4653 2053 
z
M 4653 2450 
Q 5147 2450 5437 2106 
Q 5728 1763 5728 1178 
Q 5728 594 5436 251 
Q 5144 -91 4653 -91 
Q 4153 -91 3862 251 
Q 3572 594 3572 1178 
Q 3572 1766 3864 2108 
Q 4156 2450 4653 2450 
z
M 1428 4353 
Q 1159 4353 1004 4120 
Q 850 3888 850 3481 
Q 850 3069 1003 2837 
Q 1156 2606 1428 2606 
Q 1700 2606 1854 2837 
Q 2009 3069 2009 3481 
Q 2009 3884 1853 4118 
Q 1697 4353 1428 4353 
z
M 4250 4750 
L 4750 4750 
L 1831 -91 
L 1331 -91 
L 4250 4750 
z
M 1428 4750 
Q 1922 4750 2215 4408 
Q 2509 4066 2509 3481 
Q 2509 2891 2217 2550 
Q 1925 2209 1428 2209 
Q 931 2209 642 2551 
Q 353 2894 353 3481 
Q 353 4063 643 4406 
Q 934 4750 1428 4750 
z
" id="DejaVuSans-25" transform="scale(0.015625)"/>
       <path id="DejaVuSans-20" transform="scale(0.015625)"/>
       <path d="M 1259 2228 
L 1259 519 
L 2272 519 
Q 2781 519 3026 730 
Q 3272 941 3272 1375 
Q 3272 1813 3026 2020 
Q 2781 2228 2272 2228 
L 1259 2228 
z
M 1259 4147 
L 1259 2741 
L 2194 2741 
Q 2656 2741 2882 2914 
Q 3109 3088 3109 3444 
Q 3109 3797 2882 3972 
Q 2656 4147 2194 4147 
L 1259 4147 
z
M 628 4666 
L 2241 4666 
Q 2963 4666 3353 4366 
Q 3744 4066 3744 3513 
Q 3744 3084 3544 2831 
Q 3344 2578 2956 2516 
Q 3422 2416 3680 2098 
Q 3938 1781 3938 1306 
Q 3938 681 3513 340 
Q 3088 0 2303 0 
L 628 0 
L 628 4666 
z
" id="DejaVuSans-42" transform="scale(0.015625)"/>
       <path d="M 2194 1759 
Q 1497 1759 1228 1600 
Q 959 1441 959 1056 
Q 959 750 1161 570 
Q 1363 391 1709 391 
Q 2188 391 2477 730 
Q 2766 1069 2766 1631 
L 2766 1759 
L 2194 1759 
z
M 3341 1997 
L 3341 0 
L 2766 0 
L 2766 531 
Q 2569 213 2275 61 
Q 1981 -91 1556 -91 
Q 1019 -91 701 211 
Q 384 513 384 1019 
Q 384 1609 779 1909 
Q 1175 2209 1959 2209 
L 2766 2209 
L 2766 2266 
Q 2766 2663 2505 2880 
Q 2244 3097 1772 3097 
Q 1472 3097 1187 3025 
Q 903 2953 641 2809 
L 641 3341 
Q 956 3463 1253 3523 
Q 1550 3584 1831 3584 
Q 2591 3584 2966 3190 
Q 3341 2797 3341 1997 
z
" id="DejaVuSans-61" transform="scale(0.015625)"/>
       <path d="M 2834 3397 
L 2834 2853 
Q 2591 2978 2328 3040 
Q 2066 3103 1784 3103 
Q 1356 3103 1142 2972 
Q 928 2841 928 2578 
Q 928 2378 1081 2264 
Q 1234 2150 1697 2047 
L 1894 2003 
Q 2506 1872 2764 1633 
Q 3022 1394 3022 966 
Q 3022 478 2636 193 
Q 2250 -91 1575 -91 
Q 1294 -91 989 -36 
Q 684 19 347 128 
L 347 722 
Q 666 556 975 473 
Q 1284 391 1588 391 
Q 1994 391 2212 530 
Q 2431 669 2431 922 
Q 2431 1156 2273 1281 
Q 2116 1406 1581 1522 
L 1381 1569 
Q 847 1681 609 1914 
Q 372 2147 372 2553 
Q 372 3047 722 3315 
Q 1072 3584 1716 3584 
Q 2034 3584 2315 3537 
Q 2597 3491 2834 3397 
z
" id="DejaVuSans-73" transform="scale(0.015625)"/>
      </defs>
      <use xlink:href="#DejaVuSans-25"/>
      <use x="95.019531" xlink:href="#DejaVuSans-20"/>
      <use x="126.806641" xlink:href="#DejaVuSans-42"/>
      <use x="195.410156" xlink:href="#DejaVuSans-61"/>
      <use x="256.689453" xlink:href="#DejaVuSans-73"/>
      <use x="308.789062" xlink:href="#DejaVuSans-65"/>
     </g>
    </g>
   </g>
   <g id="line2d_14">
    <path clip-path="url(#p76f856b819)" d="M 58.191258 142.051645 
L 58.782517 143.027749 
L 59.373775 151.66372 
L 59.965033 151.022012 
L 60.556291 149.034435 
L 61.14755 153.37448 
L 61.738808 148.621264 
L 62.330066 149.946627 
L 62.921325 152.042833 
L 63.512583 147.196073 
L 64.103841 148.438996 
L 64.695099 150.706609 
L 65.286358 146.66336 
L 65.877616 147.133023 
L 66.468874 150.747966 
L 67.060132 147.393974 
L 67.651391 147.93824 
L 68.242649 151.758057 
L 68.833907 148.485358 
L 69.425166 148.901879 
L 70.016424 151.368915 
L 70.607682 148.344995 
L 71.19894 149.756339 
L 71.790199 151.910155 
L 72.381457 148.980968 
L 73.563974 152.42958 
L 74.155232 149.246182 
L 74.74649 149.39154 
L 75.337748 151.407703 
L 75.929007 149.493074 
L 76.520265 149.01198 
L 77.111523 151.529814 
L 77.702781 149.4311 
L 78.29404 150.408595 
L 78.885298 152.210037 
L 79.476556 149.325201 
L 80.067815 150.15677 
L 80.659073 152.450045 
L 81.250331 148.541931 
L 81.841589 148.609915 
L 82.432848 151.716365 
L 83.024106 149.195791 
L 83.615364 149.08839 
L 84.206623 151.291724 
L 84.797881 149.560753 
L 85.389139 149.840921 
L 85.980397 151.034995 
L 86.571656 147.68814 
L 87.754172 152.0862 
L 88.34543 149.259379 
L 88.936689 149.249482 
L 89.527947 150.205446 
L 90.119205 148.528603 
L 90.710464 150.850068 
L 91.301722 150.79054 
L 91.89298 147.544052 
L 92.484238 149.557291 
L 93.075497 150.463372 
L 93.666755 147.908659 
L 94.258013 149.40363 
L 94.849272 150.541609 
L 95.44053 149.83823 
L 96.031788 150.929198 
L 96.623046 149.871162 
L 97.214305 148.540805 
L 97.805563 148.926871 
L 98.396821 150.213151 
L 98.988079 148.188166 
L 99.579338 149.940384 
L 100.170596 151.336836 
L 100.761854 148.219828 
L 101.353113 149.036404 
L 101.944371 150.812488 
L 102.535629 147.459917 
L 103.126887 148.7967 
L 103.718146 150.978199 
L 104.309404 147.355176 
L 104.900662 147.807399 
L 105.491921 149.168991 
L 106.083179 146.675115 
L 106.674437 148.183426 
L 107.265695 149.142517 
L 107.856954 146.781441 
L 108.448212 147.912831 
L 109.03947 150.279257 
L 109.630728 147.42054 
L 110.221987 148.194064 
L 110.813245 150.769151 
L 111.404503 147.868073 
L 111.995762 149.222195 
L 112.58702 151.343749 
L 113.178278 148.334123 
L 113.769536 149.108357 
L 114.360795 150.748564 
L 114.952053 148.107453 
L 115.543311 148.702597 
L 116.13457 151.443649 
L 116.725828 148.697227 
L 117.317086 148.501773 
L 117.908344 149.9918 
L 118.499603 147.538509 
L 119.090861 147.449319 
L 119.682119 149.654846 
L 120.273377 147.563116 
L 120.864636 147.114162 
L 121.455894 150.611348 
L 122.047152 147.26222 
L 123.229669 149.624483 
L 123.820927 145.945151 
L 124.412185 147.17571 
L 125.003444 149.129787 
L 125.594702 146.412043 
L 126.18596 148.647617 
L 126.777219 147.874245 
L 127.368477 147.454222 
L 127.959735 146.563207 
L 128.550993 148.035642 
L 129.142252 146.810656 
L 129.73351 147.657707 
L 130.324768 149.249329 
L 130.916026 147.133033 
L 131.507285 147.476759 
L 132.098543 149.764643 
L 132.689801 145.806036 
L 133.28106 148.277031 
L 133.872318 148.1616 
L 134.463576 144.303319 
L 135.054834 147.316418 
L 135.646093 148.701897 
L 136.237351 144.590268 
L 136.828609 146.010718 
L 137.419868 148.551149 
L 138.011126 146.162837 
L 138.602384 146.155528 
L 139.193642 148.469187 
L 139.784901 145.579529 
L 140.376159 145.9451 
L 140.967417 147.086479 
L 141.558675 145.928756 
L 142.149934 146.852338 
L 142.741192 148.732412 
L 143.33245 145.307411 
L 143.923709 145.530924 
L 144.514967 146.694393 
L 145.106225 146.317117 
L 146.288742 147.144677 
L 146.88 146.350211 
L 148.062517 148.135227 
L 148.653775 145.710461 
L 149.245033 146.804413 
L 149.836291 148.395102 
L 150.42755 145.6795 
L 151.018808 146.258229 
L 151.610066 147.753454 
L 152.201325 145.469559 
L 153.383841 148.277295 
L 153.975099 145.605506 
L 155.157616 147.299719 
L 155.748874 145.253254 
L 156.340132 146.166643 
L 156.931391 148.177325 
L 157.522649 144.987582 
L 158.113907 145.964266 
L 158.705166 147.850704 
L 159.296424 146.304529 
L 159.887682 145.591619 
L 160.47894 146.823173 
L 161.070199 146.803642 
L 161.661457 146.543056 
L 162.252715 146.942218 
L 162.843974 144.527462 
L 163.435232 145.747169 
L 164.02649 147.561472 
L 164.617748 144.276875 
L 165.209007 144.365029 
L 165.800265 145.548334 
L 166.391523 143.304425 
L 166.982781 143.973451 
L 167.57404 145.784526 
L 168.165298 144.332951 
L 168.756556 143.942337 
L 169.347815 146.119247 
L 169.939073 144.433125 
L 170.530331 145.039639 
L 171.121589 146.763026 
L 171.712848 144.695599 
L 172.304106 143.824195 
L 172.895364 145.597568 
L 173.486623 144.201511 
L 174.669139 145.542913 
L 175.260397 143.212311 
L 175.851656 144.922421 
L 176.442914 146.275639 
L 177.034172 144.38113 
L 177.62543 144.34761 
L 178.216689 145.406286 
L 178.807947 143.154591 
L 179.399205 143.904432 
L 179.990464 145.893744 
L 180.581722 144.039871 
L 181.17298 145.330171 
L 181.764238 147.11804 
L 182.355497 143.77354 
L 182.946755 143.951503 
L 183.538013 146.576495 
L 184.129272 144.98739 
L 184.72053 145.730957 
L 185.311788 146.235987 
L 185.903046 144.345488 
L 186.494305 144.650628 
L 187.085563 145.735129 
L 187.676821 144.398996 
L 188.268079 143.541875 
L 188.859338 145.212882 
L 189.450596 144.033394 
L 190.041854 144.457833 
L 190.633113 144.358441 
L 191.224371 142.126856 
L 191.815629 144.127173 
L 192.406887 145.180235 
L 192.998146 142.930926 
L 193.589404 144.404518 
L 194.180662 145.179545 
L 194.771921 143.328656 
L 195.363179 144.372877 
L 195.954437 144.186274 
L 196.545695 143.47111 
L 197.728212 145.048125 
L 198.31947 143.573263 
L 198.910728 146.134961 
L 199.501987 146.268299 
L 200.093245 144.354868 
L 200.684503 144.852305 
L 201.275762 145.528021 
L 201.86702 143.984485 
L 202.458278 145.433522 
L 203.049536 146.006973 
L 203.640795 143.99819 
L 204.232053 146.129266 
L 204.823311 145.491567 
L 205.41457 143.572086 
L 206.005828 145.293067 
L 206.597086 145.804767 
L 207.188344 144.260613 
L 207.779603 145.899774 
L 208.370861 145.692646 
L 208.962119 143.990211 
L 209.553377 144.752619 
L 210.144636 145.209857 
L 210.735894 143.649521 
L 211.918411 146.257021 
L 212.509669 143.425764 
L 213.100927 145.174966 
L 213.692185 146.315848 
L 214.283444 144.275007 
L 214.874702 144.699253 
L 215.46596 145.781348 
L 216.057219 144.834936 
L 216.648477 146.030138 
L 217.239735 146.027661 
L 217.830993 145.123266 
L 218.422252 145.959921 
L 219.01351 145.079787 
L 219.604768 144.469203 
L 220.787285 145.906667 
L 221.378543 144.671804 
L 221.969801 145.54139 
L 222.56106 145.220627 
L 223.152318 143.45904 
L 223.743576 143.829362 
L 224.334834 145.353377 
L 224.926093 143.22161 
L 225.517351 144.544719 
L 226.108609 145.096009 
L 226.699868 144.460361 
L 227.291126 144.776454 
L 227.882384 146.190986 
L 228.473642 144.582025 
L 229.064901 144.822389 
L 229.656159 146.835192 
L 230.247417 146.303626 
L 230.838675 146.112922 
L 231.429934 146.800769 
L 232.021192 145.386318 
L 232.61245 145.362635 
L 233.203709 146.118211 
L 233.794967 145.936654 
L 234.386225 143.485962 
L 234.977483 147.046747 
L 235.568742 141.863266 
L 236.16 157.207453 
L 236.751258 153.361476 
L 237.342517 164.216597 
L 237.933775 171.098604 
L 238.525033 168.294127 
L 239.116291 171.218167 
L 239.70755 169.352244 
L 240.298808 169.710334 
L 240.890066 172.428261 
L 241.481325 169.192553 
L 242.072583 168.764531 
L 242.663841 171.468033 
L 243.255099 169.366091 
L 243.846358 168.390179 
L 244.437616 170.580854 
L 245.028874 170.365797 
L 245.620132 170.32843 
L 246.211391 172.458776 
L 246.802649 171.488193 
L 247.393907 171.166334 
L 247.985166 173.144227 
L 248.576424 171.627247 
L 249.167682 172.0815 
L 249.75894 172.864242 
L 250.350199 171.896126 
L 250.941457 171.609685 
L 251.532715 171.577566 
L 252.123974 171.784217 
L 253.30649 172.741451 
L 253.897748 171.824782 
L 254.489007 172.076018 
L 255.080265 173.275758 
L 255.671523 172.297704 
L 256.262781 171.913718 
L 256.85404 173.541785 
L 257.445298 172.609848 
L 258.036556 172.328554 
L 258.627815 173.588339 
L 259.219073 171.738049 
L 259.810331 171.617035 
L 260.401589 173.417461 
L 260.992848 171.455922 
L 261.584106 172.488885 
L 262.175364 174.186346 
L 262.766623 173.148338 
L 263.357881 172.39267 
L 263.949139 173.348959 
L 264.540397 170.827654 
L 265.722914 173.594013 
L 266.314172 171.679151 
L 266.90543 172.55563 
L 267.496689 173.201399 
L 268.087947 172.988535 
L 268.679205 173.270002 
L 269.270464 173.688106 
L 269.861722 172.116096 
L 270.45298 172.973511 
L 271.635497 172.917719 
L 272.226755 173.121833 
L 272.818013 174.153953 
L 273.409272 172.822926 
L 274.00053 173.950621 
L 274.591788 174.298447 
L 275.183046 173.079776 
L 275.774305 173.23564 
L 276.365563 174.942836 
L 276.956821 172.960426 
L 277.548079 173.91635 
L 278.139338 174.518925 
L 278.730596 172.805597 
L 279.321854 174.391535 
L 279.913113 175.064114 
L 280.504371 171.299764 
L 281.095629 172.731086 
L 281.686887 174.489273 
L 282.278146 172.407694 
L 282.869404 172.846071 
L 283.460662 173.468228 
L 284.051921 172.141779 
L 285.234437 173.751065 
L 285.825695 172.613381 
L 286.416954 172.135983 
L 287.008212 173.409045 
L 287.59947 173.381769 
L 288.190728 172.82254 
L 288.781987 174.454991 
L 289.373245 173.622752 
L 290.555762 174.995166 
L 291.14702 174.42809 
L 291.738278 173.42479 
L 292.329536 174.768628 
L 292.920795 174.556495 
L 293.512053 173.957239 
L 294.103311 175.713923 
L 295.285828 173.745127 
L 295.877086 175.270725 
L 297.059603 173.458361 
L 297.650861 174.677763 
L 298.833377 174.856935 
L 299.424636 175.582971 
L 300.607152 174.13967 
L 301.198411 175.358219 
L 301.789669 173.871765 
L 302.972185 175.625525 
L 303.563444 174.89218 
L 304.154702 175.085269 
L 304.74596 174.889744 
L 305.337219 175.472341 
L 305.928477 174.874334 
L 306.519735 175.380735 
L 307.110993 175.015722 
L 307.702252 175.509363 
L 308.29351 175.370675 
L 308.884768 175.858316 
L 309.476026 175.569094 
L 310.067285 176.516653 
L 310.658543 175.190681 
L 311.249801 175.976945 
L 311.84106 175.913489 
L 312.432318 175.044045 
L 313.023576 176.125054 
L 313.614834 175.2912 
L 314.206093 175.096598 
L 314.797351 174.309644 
L 315.388609 175.899785 
L 316.571126 176.011023 
L 317.162384 175.701041 
L 317.753642 175.195077 
L 318.344901 173.601373 
L 318.936159 175.837537 
L 320.118675 174.932268 
L 320.709934 176.327573 
L 321.301192 174.981776 
L 321.89245 175.041131 
L 322.483709 175.889654 
L 323.074967 175.548974 
L 323.666225 174.800087 
L 324.257483 175.511231 
L 325.44 174.511585 
L 326.031258 176.212355 
L 326.622517 175.513708 
L 327.213775 176.156472 
L 327.805033 176.348303 
L 328.396291 174.762294 
L 328.98755 175.263182 
L 329.578808 177.122202 
L 330.170066 174.546973 
L 330.761325 175.159425 
L 331.352583 176.235511 
L 331.943841 174.64534 
L 332.535099 174.436425 
L 333.126358 176.301728 
L 333.717616 175.069332 
L 334.308874 175.224891 
L 334.900132 175.935761 
L 335.491391 174.482583 
L 336.082649 175.835567 
L 337.265166 175.856804 
L 337.856424 174.756294 
L 338.447682 175.82237 
L 339.03894 174.842022 
L 339.630199 174.863706 
L 340.221457 174.619403 
L 340.812715 174.500977 
L 341.403974 176.069241 
L 341.995232 176.122364 
L 342.58649 174.857402 
L 343.177748 174.035557 
L 343.769007 174.763816 
L 345.542781 174.748934 
L 346.13404 174.279525 
L 346.725298 174.37776 
L 347.316556 175.80222 
L 347.907815 175.405149 
L 348.499073 174.128909 
L 349.090331 175.576717 
L 350.272848 174.578737 
L 350.864106 175.328445 
L 351.455364 174.878151 
L 352.046623 173.728143 
L 352.637881 175.143548 
L 353.229139 174.15646 
L 353.820397 174.517635 
L 354.411656 175.537087 
L 355.002914 174.302061 
L 355.594172 173.88218 
L 356.18543 174.32478 
L 356.776689 174.111276 
L 357.367947 174.442008 
L 357.959205 174.43478 
L 358.550464 173.886951 
L 359.141722 174.192162 
L 359.73298 174.876781 
L 360.324238 173.029709 
L 360.915497 173.48847 
L 361.506755 175.015733 
L 362.098013 174.438506 
L 362.689272 174.791621 
L 363.871788 174.03174 
L 364.463046 173.934399 
L 366.236821 174.792778 
L 366.828079 174.184955 
L 367.419338 173.336057 
L 368.010596 173.975654 
L 368.601854 173.819902 
L 369.193113 172.048732 
L 369.784371 172.822053 
L 370.375629 172.34172 
L 370.966887 172.676918 
L 371.558146 173.730509 
L 372.149404 173.671417 
L 372.740662 172.511319 
L 373.331921 173.997449 
L 373.923179 172.937149 
L 374.514437 172.176497 
L 375.696954 173.093927 
L 376.288212 172.134846 
L 376.87947 173.419836 
L 377.470728 174.14772 
L 378.061987 172.791903 
L 378.653245 171.961816 
L 379.244503 172.731726 
L 379.835762 172.796207 
L 380.42702 173.94318 
L 381.018278 172.782046 
L 381.609536 172.060862 
L 382.200795 173.70108 
L 382.792053 173.143059 
L 383.383311 171.243048 
L 383.97457 171.589078 
L 384.565828 173.042276 
L 385.157086 171.578155 
L 386.339603 173.768769 
L 386.930861 172.07277 
L 387.522119 172.414993 
L 388.113377 173.591567 
L 389.295894 172.102179 
L 389.887152 173.02308 
L 390.478411 171.763671 
L 391.069669 172.681832 
L 391.660927 172.45236 
L 392.252185 171.572399 
L 392.843444 171.842984 
L 393.434702 173.28197 
L 394.02596 172.307622 
L 394.617219 173.571538 
L 395.208477 173.297736 
L 395.799735 172.506507 
L 396.390993 174.015295 
L 396.982252 172.74204 
L 397.57351 172.453314 
L 398.164768 172.565213 
L 398.756026 173.81845 
L 399.347285 172.077846 
L 399.938543 173.168123 
L 400.529801 172.33098 
L 401.12106 172.065228 
L 401.712318 172.210808 
L 402.303576 171.330644 
L 402.894834 171.372437 
L 403.486093 171.994726 
L 404.077351 172.182567 
L 404.668609 172.064629 
L 405.259868 172.716986 
L 405.851126 172.9446 
L 406.442384 172.092413 
L 407.033642 170.276973 
L 407.624901 172.831179 
L 408.216159 172.977622 
L 408.807417 172.384437 
L 409.398675 173.016959 
L 409.989934 171.806885 
L 410.581192 171.926245 
L 411.17245 171.673953 
L 411.763709 171.658087 
L 412.354967 171.432848 
L 412.946225 172.803486 
L 413.537483 166.786567 
L 413.537483 166.786567 
" style="fill:none;stroke:#ff0000;stroke-linecap:square;stroke-width:0.5;"/>
   </g>
   <g id="line2d_15">
    <path clip-path="url(#p76f856b819)" d="M 58.191258 189.327759 
L 58.782517 199.753346 
L 59.373775 186.72298 
L 59.965033 187.981637 
L 60.556291 194.28048 
L 61.14755 187.288096 
L 61.738808 191.33975 
L 62.921325 188.788143 
L 63.512583 189.195578 
L 64.103841 190.597909 
L 64.695099 189.576509 
L 65.286358 190.279765 
L 65.877616 190.595493 
L 66.468874 188.970035 
L 67.060132 190.512627 
L 67.651391 190.509561 
L 68.242649 186.958715 
L 68.833907 189.023868 
L 69.425166 189.55919 
L 70.016424 187.23941 
L 70.607682 189.449789 
L 71.19894 190.300971 
L 71.790199 187.422693 
L 72.381457 188.880977 
L 72.972715 188.861659 
L 73.563974 187.370718 
L 74.155232 187.775981 
L 74.74649 189.566509 
L 75.337748 187.580141 
L 75.929007 187.964126 
L 76.520265 190.752504 
L 77.111523 187.933926 
L 77.702781 188.669159 
L 78.29404 190.457282 
L 78.885298 187.783493 
L 79.476556 189.695036 
L 80.067815 190.200371 
L 80.659073 187.899066 
L 81.250331 188.034688 
L 81.841589 190.167034 
L 82.432848 188.067396 
L 83.615364 190.009627 
L 84.206623 188.259521 
L 84.797881 188.589907 
L 85.389139 188.764024 
L 85.980397 187.411354 
L 86.571656 188.146414 
L 87.162914 189.661739 
L 87.754172 187.528673 
L 88.34543 187.89798 
L 88.936689 189.176839 
L 89.527947 187.991992 
L 90.119205 188.881302 
L 90.710464 188.718383 
L 91.301722 187.503427 
L 91.89298 189.750696 
L 92.484238 190.256092 
L 93.075497 188.281275 
L 93.666755 187.45399 
L 94.258013 188.570204 
L 95.44053 187.977354 
L 96.031788 188.298979 
L 96.623046 187.662651 
L 97.214305 187.88257 
L 97.805563 188.689035 
L 98.396821 186.520602 
L 98.988079 187.474485 
L 99.579338 188.835438 
L 100.170596 186.824767 
L 100.761854 187.616574 
L 101.353113 187.696211 
L 101.944371 186.317483 
L 102.535629 188.472334 
L 103.126887 189.046759 
L 103.718146 186.093412 
L 104.309404 188.177498 
L 104.900662 189.349565 
L 105.491921 187.362769 
L 106.674437 188.633416 
L 107.265695 188.093343 
L 107.856954 188.026354 
L 108.448212 189.517905 
L 109.03947 187.409547 
L 109.630728 188.817846 
L 110.221987 189.291154 
L 110.813245 188.207038 
L 111.404503 189.842951 
L 111.995762 189.438551 
L 112.58702 187.295476 
L 113.178278 189.689554 
L 113.769536 189.96022 
L 114.360795 187.584831 
L 114.952053 189.417305 
L 115.543311 190.671232 
L 116.13457 187.725772 
L 116.725828 188.3507 
L 117.317086 190.300179 
L 117.908344 188.026679 
L 118.499603 187.989545 
L 119.090861 189.944029 
L 119.682119 189.057185 
L 120.273377 187.619071 
L 120.864636 188.945835 
L 121.455894 187.829763 
L 122.047152 189.226286 
L 122.638411 188.950332 
L 123.229669 188.317729 
L 123.820927 189.297701 
L 124.412185 189.446287 
L 125.003444 188.494434 
L 125.594702 189.117332 
L 126.18596 185.487 
L 126.777219 187.621193 
L 127.368477 188.399021 
L 127.959735 191.339293 
L 128.550993 188.116194 
L 129.73351 190.075631 
L 130.324768 188.830353 
L 130.916026 189.662755 
L 131.507285 189.409052 
L 132.098543 187.709215 
L 132.689801 189.407498 
L 133.28106 189.32174 
L 133.872318 187.043763 
L 134.463576 189.255258 
L 135.054834 190.793952 
L 135.646093 187.410359 
L 136.828609 190.344277 
L 137.419868 188.591867 
L 138.011126 187.804425 
L 138.602384 189.731967 
L 139.193642 188.010183 
L 139.784901 188.678711 
L 140.376159 189.108693 
L 140.967417 188.506321 
L 141.558675 189.646959 
L 142.149934 189.084868 
L 142.741192 187.753069 
L 143.33245 189.108338 
L 143.923709 189.616485 
L 144.514967 189.424776 
L 145.106225 188.874237 
L 145.697483 189.594822 
L 146.288742 189.232601 
L 146.88 189.679332 
L 147.471258 189.736453 
L 148.062517 188.128203 
L 148.653775 189.559982 
L 149.245033 189.873944 
L 149.836291 187.6733 
L 150.42755 189.321334 
L 151.018808 190.466215 
L 151.610066 188.36745 
L 152.201325 189.484486 
L 152.792583 188.672377 
L 153.383841 189.193772 
L 153.975099 189.489968 
L 154.566358 190.15272 
L 155.157616 188.944464 
L 155.748874 189.786317 
L 156.931391 187.747364 
L 158.113907 190.017981 
L 158.705166 188.247055 
L 159.296424 189.123098 
L 159.887682 189.537943 
L 160.47894 188.32718 
L 161.070199 188.956595 
L 161.661457 188.687827 
L 162.252715 188.164575 
L 162.843974 190.086371 
L 163.435232 190.566084 
L 164.02649 187.59216 
L 164.617748 190.499755 
L 165.209007 190.617856 
L 165.800265 188.017299 
L 166.982781 190.366904 
L 167.57404 188.677595 
L 168.165298 189.19166 
L 168.756556 189.892287 
L 169.347815 188.565676 
L 169.939073 189.608851 
L 170.530331 189.298757 
L 171.121589 188.426511 
L 171.712848 189.871122 
L 172.304106 189.485238 
L 172.895364 188.348081 
L 173.486623 190.132864 
L 174.077881 189.979041 
L 174.669139 188.818283 
L 175.260397 188.954991 
L 175.851656 190.062282 
L 176.442914 189.105556 
L 177.034172 189.226611 
L 177.62543 189.107556 
L 178.216689 189.180199 
L 178.807947 190.258295 
L 179.399205 188.74839 
L 179.990464 189.26341 
L 180.581722 190.501004 
L 181.17298 190.198341 
L 181.764238 188.568995 
L 182.355497 190.022641 
L 182.946755 190.44645 
L 183.538013 188.245248 
L 184.129272 189.635376 
L 184.72053 189.31167 
L 185.311788 188.526796 
L 185.903046 188.885952 
L 186.494305 189.539152 
L 187.085563 188.537932 
L 187.676821 188.887637 
L 188.268079 190.891121 
L 188.859338 188.807461 
L 189.450596 188.607824 
L 190.041854 190.090208 
L 190.633113 189.198624 
L 191.224371 189.7771 
L 191.815629 189.703228 
L 192.406887 189.16348 
L 192.998146 190.149492 
L 193.589404 189.198116 
L 194.180662 188.81008 
L 194.771921 188.998002 
L 195.363179 188.261663 
L 196.545695 189.487643 
L 197.136954 188.802903 
L 197.728212 188.948108 
L 198.31947 190.128915 
L 198.910728 188.729397 
L 199.501987 187.806983 
L 200.093245 189.683128 
L 200.684503 188.906061 
L 201.275762 188.351502 
L 201.86702 189.100247 
L 202.458278 189.479218 
L 203.049536 187.226041 
L 203.640795 189.136 
L 204.232053 189.714537 
L 204.823311 188.045429 
L 205.41457 189.335921 
L 206.005828 189.905961 
L 206.597086 188.519954 
L 207.188344 189.149319 
L 207.779603 189.347951 
L 208.370861 188.299903 
L 208.962119 189.800559 
L 209.553377 189.653984 
L 210.144636 188.092622 
L 210.735894 189.801879 
L 211.918411 187.592617 
L 212.509669 190.092909 
L 213.692185 187.821337 
L 214.283444 188.724697 
L 214.874702 188.292178 
L 216.057219 189.092329 
L 216.648477 188.617519 
L 217.239735 188.612545 
L 217.830993 188.849823 
L 219.01351 188.049733 
L 219.604768 188.969568 
L 220.196026 189.462336 
L 220.787285 188.488272 
L 221.378543 188.904285 
L 222.56106 188.297406 
L 223.152318 189.338845 
L 223.743576 189.315761 
L 224.334834 187.885991 
L 224.926093 189.730261 
L 225.517351 189.743184 
L 226.699868 189.011291 
L 227.291126 189.987994 
L 227.882384 188.928039 
L 228.473642 188.876876 
L 229.064901 189.806234 
L 229.656159 188.106377 
L 230.247417 189.523864 
L 230.838675 188.909239 
L 231.429934 187.56604 
L 232.021192 188.893971 
L 232.61245 188.39828 
L 233.203709 188.564224 
L 233.794967 189.205923 
L 234.386225 189.492689 
L 234.977483 187.698668 
L 235.568742 189.115708 
L 236.16 196.406947 
L 236.751258 200.019179 
L 237.342517 187.948341 
L 237.933775 186.862165 
L 238.525033 194.94113 
L 239.116291 186.356454 
L 239.70755 192.070486 
L 240.890066 188.484962 
L 242.072583 190.667963 
L 242.663841 189.323059 
L 243.255099 188.83149 
L 243.846358 190.250742 
L 244.437616 188.66119 
L 245.028874 189.218013 
L 245.620132 189.611693 
L 246.211391 186.46146 
L 246.802649 187.910994 
L 247.393907 188.619235 
L 247.985166 186.293688 
L 248.576424 187.89997 
L 249.167682 188.375389 
L 249.75894 186.376422 
L 250.350199 187.068359 
L 250.941457 187.288197 
L 251.532715 187.136841 
L 252.123974 186.08189 
L 252.715232 186.660173 
L 253.30649 185.842907 
L 253.897748 186.6888 
L 254.489007 187.876733 
L 255.080265 185.730714 
L 255.671523 186.419058 
L 256.262781 187.532287 
L 256.85404 185.76329 
L 257.445298 186.42123 
L 258.036556 187.934728 
L 258.627815 185.609689 
L 259.219073 185.863879 
L 259.810331 187.112528 
L 260.401589 185.294053 
L 260.992848 187.141439 
L 261.584106 186.80151 
L 262.175364 186.207077 
L 262.766623 186.381092 
L 263.357881 186.820169 
L 263.949139 185.186174 
L 264.540397 186.982195 
L 265.131656 187.58415 
L 265.722914 186.402176 
L 266.314172 187.246526 
L 266.90543 187.825936 
L 267.496689 186.311088 
L 268.679205 187.451787 
L 269.270464 185.925326 
L 269.861722 186.61908 
L 270.45298 188.261886 
L 271.044238 186.526429 
L 271.635497 185.980427 
L 272.226755 186.738186 
L 272.818013 186.989301 
L 274.00053 187.088794 
L 274.591788 185.513718 
L 275.774305 187.913156 
L 276.365563 186.284694 
L 276.956821 186.944097 
L 277.548079 187.362607 
L 278.139338 185.218364 
L 278.730596 186.233704 
L 279.321854 186.479753 
L 279.913113 185.920961 
L 280.504371 187.039012 
L 281.095629 187.667036 
L 281.686887 185.484533 
L 282.278146 187.13951 
L 282.869404 187.172939 
L 283.460662 186.109908 
L 284.643179 187.171183 
L 285.234437 186.140707 
L 286.416954 187.378037 
L 287.008212 185.525717 
L 288.190728 187.978947 
L 288.781987 185.700696 
L 289.373245 187.379316 
L 289.964503 188.220306 
L 290.555762 186.552832 
L 291.14702 187.687826 
L 291.738278 188.125015 
L 292.329536 186.547686 
L 293.512053 189.46999 
L 294.103311 187.126821 
L 294.69457 186.169689 
L 295.285828 187.836351 
L 295.877086 185.888151 
L 296.468344 186.422956 
L 297.059603 187.997463 
L 298.242119 186.106568 
L 298.833377 186.871139 
L 299.424636 186.197575 
L 300.015894 187.213311 
L 300.607152 187.755668 
L 301.198411 187.056787 
L 301.789669 187.440793 
L 302.380927 187.091799 
L 302.972185 185.845039 
L 304.154702 187.580161 
L 304.74596 186.270198 
L 305.337219 186.698799 
L 305.928477 189.672997 
L 306.519735 186.410003 
L 307.110993 186.806962 
L 307.702252 187.566842 
L 308.29351 187.182867 
L 309.476026 187.151743 
L 310.067285 185.696341 
L 310.658543 187.086277 
L 311.249801 187.289284 
L 311.84106 185.14031 
L 313.023576 188.120051 
L 313.614834 186.813103 
L 314.206093 186.308611 
L 314.797351 188.052646 
L 315.979868 185.573621 
L 316.571126 186.851222 
L 317.162384 186.618745 
L 317.753642 187.220376 
L 318.344901 188.211982 
L 318.936159 186.57545 
L 320.118675 188.035927 
L 320.709934 186.824209 
L 321.301192 186.579612 
L 321.89245 187.641516 
L 323.074967 186.422184 
L 323.666225 187.370972 
L 324.257483 186.381914 
L 324.848742 186.506481 
L 325.44 187.567269 
L 326.031258 186.324508 
L 327.213775 186.844126 
L 327.805033 185.244037 
L 328.396291 186.747729 
L 328.98755 187.27292 
L 329.578808 185.282013 
L 330.170066 186.606259 
L 330.761325 186.333898 
L 331.352583 186.790608 
L 331.943841 186.591012 
L 332.535099 187.096885 
L 333.126358 186.471388 
L 333.717616 187.686984 
L 334.308874 186.098031 
L 334.900132 186.551472 
L 335.491391 185.912139 
L 336.082649 186.097097 
L 336.673907 185.713385 
L 337.265166 186.545767 
L 337.856424 185.913337 
L 338.447682 185.594452 
L 339.03894 187.034484 
L 339.630199 186.498472 
L 340.221457 186.12946 
L 340.812715 187.552803 
L 341.403974 187.984287 
L 341.995232 185.751717 
L 342.58649 186.914911 
L 343.177748 187.333726 
L 343.769007 184.884536 
L 344.360265 186.817895 
L 344.951523 187.443107 
L 345.542781 186.500807 
L 346.13404 187.792903 
L 346.725298 188.061447 
L 347.316556 186.597651 
L 347.907815 187.753252 
L 348.499073 187.64247 
L 349.090331 186.579673 
L 349.681589 186.927753 
L 350.272848 186.706301 
L 350.864106 186.689013 
L 351.455364 187.790792 
L 352.046623 188.105515 
L 352.637881 186.426732 
L 353.229139 186.8954 
L 353.820397 187.901898 
L 354.411656 186.539351 
L 355.002914 186.155559 
L 355.594172 186.841791 
L 356.18543 186.622319 
L 356.776689 186.919266 
L 357.367947 185.457906 
L 357.959205 186.841771 
L 358.550464 187.704272 
L 359.141722 187.481987 
L 359.73298 186.197667 
L 360.324238 187.746806 
L 360.915497 187.905969 
L 361.506755 186.639637 
L 362.098013 187.079303 
L 362.689272 187.379682 
L 363.28053 186.159386 
L 364.463046 188.102286 
L 365.054305 187.157519 
L 365.645563 187.119218 
L 366.236821 188.546744 
L 366.828079 187.31388 
L 367.419338 186.964288 
L 368.010596 187.501924 
L 368.601854 187.042575 
L 369.193113 187.179152 
L 370.375629 188.136842 
L 371.558146 186.73109 
L 372.149404 186.848359 
L 372.740662 186.810312 
L 373.331921 185.906495 
L 374.514437 187.776976 
L 375.105695 187.366566 
L 375.696954 186.601864 
L 376.288212 187.457502 
L 376.87947 186.457755 
L 377.470728 186.229826 
L 378.061987 187.673625 
L 378.653245 186.346648 
L 379.244503 185.49707 
L 379.835762 186.658437 
L 380.42702 186.409434 
L 381.018278 184.803447 
L 381.609536 186.235775 
L 382.200795 187.097798 
L 382.792053 185.371061 
L 383.383311 185.41727 
L 383.97457 186.727456 
L 384.565828 184.812543 
L 385.157086 186.445969 
L 385.748344 185.957495 
L 386.339603 184.209948 
L 386.930861 185.834633 
L 387.522119 185.056998 
L 388.113377 183.897671 
L 388.704636 184.663369 
L 389.295894 184.724967 
L 389.887152 184.014696 
L 390.478411 185.237855 
L 391.069669 183.907183 
L 391.660927 183.588684 
L 392.843444 185.011063 
L 393.434702 183.933282 
L 394.02596 185.007926 
L 394.617219 184.096679 
L 395.208477 184.870375 
L 395.799735 184.867969 
L 396.390993 184.072498 
L 396.982252 184.107226 
L 397.57351 184.839464 
L 398.164768 185.329725 
L 398.756026 184.189726 
L 399.347285 185.317837 
L 399.938543 184.117174 
L 400.529801 185.397627 
L 401.12106 186.059841 
L 401.712318 184.632153 
L 402.303576 184.558109 
L 402.894834 185.433817 
L 403.486093 185.327522 
L 404.077351 184.080396 
L 404.668609 184.534791 
L 405.259868 184.776039 
L 405.851126 183.974243 
L 406.442384 184.64465 
L 407.033642 184.723191 
L 407.624901 182.628334 
L 408.807417 184.884821 
L 409.398675 184.133741 
L 409.989934 184.69496 
L 410.581192 185.026706 
L 411.763709 184.405047 
L 412.354967 185.173759 
L 412.946225 183.492591 
L 413.537483 180.244407 
L 413.537483 180.244407 
" style="fill:none;stroke:#008000;stroke-linecap:square;stroke-width:0.5;"/>
   </g>
   <g id="line2d_16">
    <path clip-path="url(#p76f856b819)" d="M 58.191258 192.476734 
L 58.782517 186.946239 
L 59.373775 193.454016 
L 60.556291 185.358626 
L 61.14755 185.210619 
L 61.738808 185.497232 
L 62.330066 187.734492 
L 62.921325 188.654541 
L 63.512583 188.874866 
L 64.103841 188.196471 
L 64.695099 188.121615 
L 65.877616 189.050363 
L 66.468874 189.27081 
L 67.060132 189.195792 
L 67.651391 188.192684 
L 68.242649 189.614739 
L 68.833907 188.877648 
L 69.425166 187.688334 
L 70.016424 188.709917 
L 71.19894 186.802942 
L 71.790199 187.977831 
L 72.381457 187.419942 
L 72.972715 186.382371 
L 73.563974 186.533992 
L 74.155232 186.928392 
L 74.74649 185.437948 
L 75.337748 187.028657 
L 75.929007 187.64181 
L 76.520265 185.540599 
L 77.702781 187.078521 
L 78.29404 185.218973 
L 78.885298 185.364381 
L 80.067815 185.224749 
L 81.841589 186.637586 
L 82.432848 186.191657 
L 83.024106 185.509587 
L 83.615364 185.919539 
L 84.206623 185.972276 
L 84.797881 185.578311 
L 85.389139 186.080104 
L 85.980397 186.756997 
L 86.571656 187.6136 
L 87.162914 186.012556 
L 88.34543 186.681217 
L 88.936689 186.192256 
L 89.527947 187.024414 
L 90.119205 186.655798 
L 90.710464 185.433015 
L 91.301722 186.678892 
L 91.89298 186.070267 
L 92.484238 185.002455 
L 93.075497 185.583722 
L 93.666755 186.708798 
L 94.258013 185.364189 
L 94.849272 186.132018 
L 95.44053 185.458637 
L 96.031788 185.054775 
L 96.623046 186.420479 
L 97.214305 187.350364 
L 97.805563 185.93636 
L 98.396821 185.745728 
L 98.988079 185.874011 
L 99.579338 185.40987 
L 100.170596 185.345337 
L 100.761854 186.271832 
L 101.353113 186.38569 
L 101.944371 185.87865 
L 102.535629 186.007298 
L 103.126887 185.769157 
L 103.718146 186.95974 
L 104.309404 186.836929 
L 104.900662 186.261945 
L 105.491921 186.903471 
L 106.083179 186.902791 
L 106.674437 185.600512 
L 107.265695 185.554151 
L 107.856954 186.581632 
L 108.448212 185.703082 
L 109.630728 186.581876 
L 110.221987 185.436131 
L 111.404503 185.381811 
L 111.995762 184.327115 
L 112.58702 185.489274 
L 113.178278 185.351235 
L 113.769536 185.021773 
L 114.360795 186.685074 
L 114.952053 185.751544 
L 115.543311 184.579265 
L 116.725828 185.563572 
L 117.317086 184.626154 
L 117.908344 186.347897 
L 118.499603 186.085118 
L 119.090861 186.371722 
L 119.682119 185.163557 
L 120.273377 186.556578 
L 120.864636 186.755697 
L 121.455894 185.774761 
L 122.047152 185.668709 
L 122.638411 186.027804 
L 123.229669 185.845505 
L 123.820927 185.907388 
L 124.412185 186.205219 
L 125.003444 185.880538 
L 125.594702 185.771796 
L 126.18596 187.780082 
L 126.777219 186.775665 
L 127.959735 183.795396 
L 128.550993 186.399841 
L 129.73351 184.743006 
L 130.324768 184.164267 
L 130.916026 185.085188 
L 131.507285 184.834236 
L 132.098543 184.720815 
L 132.689801 185.908728 
L 133.28106 184.907803 
L 134.463576 187.379276 
L 135.054834 185.384471 
L 135.646093 186.006831 
L 136.237351 187.789391 
L 136.828609 185.737414 
L 137.419868 185.135478 
L 138.011126 187.064055 
L 138.602384 185.884294 
L 139.193642 185.619445 
L 139.784901 186.939386 
L 140.376159 186.758235 
L 140.967417 186.975383 
L 141.558675 185.025163 
L 142.149934 185.954501 
L 143.33245 187.118 
L 143.923709 186.191088 
L 144.514967 186.490909 
L 145.106225 186.446527 
L 145.697483 184.97462 
L 146.288742 186.471104 
L 146.88 185.78073 
L 147.471258 185.367924 
L 148.062517 186.656559 
L 148.653775 187.614351 
L 149.245033 185.352068 
L 149.836291 185.577987 
L 150.42755 186.49631 
L 151.018808 185.618724 
L 151.610066 185.781724 
L 152.201325 186.704514 
L 153.383841 184.5575 
L 153.975099 186.181475 
L 155.157616 185.686281 
L 156.340132 186.366301 
L 156.931391 186.105106 
L 157.522649 186.345004 
L 158.705166 185.364097 
L 159.296424 185.369904 
L 159.887682 185.660111 
L 160.47894 187.177334 
L 161.070199 184.534842 
L 161.661457 185.492715 
L 162.252715 186.026088 
L 162.843974 186.105137 
L 163.435232 184.696137 
L 164.02649 186.763199 
L 164.617748 185.042938 
L 165.209007 185.665877 
L 165.800265 187.222406 
L 166.391523 186.96308 
L 166.982781 186.074256 
L 167.57404 186.82095 
L 168.165298 186.577409 
L 168.756556 187.105574 
L 169.347815 187.304582 
L 169.939073 186.576627 
L 170.530331 186.935844 
L 171.121589 186.694414 
L 171.712848 186.109431 
L 172.304106 187.527343 
L 172.895364 186.731862 
L 173.486623 186.832827 
L 174.077881 186.39706 
L 174.669139 186.510308 
L 175.260397 186.947782 
L 175.851656 186.636206 
L 176.442914 186.85781 
L 177.034172 186.669756 
L 177.62543 186.873362 
L 178.216689 186.597894 
L 178.807947 186.64389 
L 179.399205 187.529922 
L 179.990464 185.764213 
L 180.581722 185.902424 
L 181.17298 186.503954 
L 181.764238 186.658559 
L 182.355497 186.243165 
L 183.538013 187.068116 
L 184.129272 187.01943 
L 184.72053 187.37822 
L 185.903046 187.201748 
L 186.494305 187.366952 
L 187.085563 188.165326 
L 187.676821 187.534287 
L 188.268079 187.133074 
L 189.450596 188.773454 
L 190.041854 186.932788 
L 190.633113 187.214854 
L 191.224371 187.642866 
L 191.815629 186.764671 
L 192.406887 186.743973 
L 192.998146 187.396513 
L 193.589404 187.489428 
L 194.180662 186.314062 
L 194.771921 187.752348 
L 195.954437 187.337797 
L 196.545695 186.614867 
L 197.136954 187.617386 
L 197.728212 187.705266 
L 198.31947 186.981129 
L 198.910728 186.843578 
L 199.501987 187.455614 
L 200.093245 186.911318 
L 200.684503 187.642399 
L 201.275762 187.745425 
L 202.458278 186.4762 
L 203.049536 188.654115 
L 203.640795 188.192613 
L 204.232053 186.688607 
L 204.823311 187.78261 
L 205.41457 187.996753 
L 206.005828 186.734643 
L 206.597086 187.004995 
L 207.188344 187.581846 
L 207.779603 186.782923 
L 208.370861 187.635872 
L 208.962119 187.303049 
L 209.553377 187.719153 
L 210.735894 187.95969 
L 211.327152 187.75848 
L 211.918411 188.007077 
L 212.509669 187.315809 
L 213.100927 187.641831 
L 213.692185 187.526105 
L 214.283444 187.746674 
L 214.874702 188.177325 
L 215.46596 187.938037 
L 216.057219 187.480089 
L 217.239735 187.936078 
L 218.422252 187.669838 
L 219.01351 188.39022 
L 219.604768 188.250649 
L 220.196026 187.528765 
L 220.787285 187.063741 
L 221.378543 187.905654 
L 221.969801 187.616219 
L 222.56106 188.165834 
L 223.152318 188.365755 
L 223.743576 188.9227 
L 224.334834 188.695989 
L 224.926093 188.010396 
L 226.699868 188.180147 
L 227.291126 187.848441 
L 227.882384 187.181446 
L 228.473642 188.438053 
L 229.064901 189.016701 
L 229.656159 187.63776 
L 230.247417 187.298176 
L 231.429934 188.198176 
L 232.021192 187.281751 
L 232.61245 189.494008 
L 233.203709 188.904062 
L 233.794967 186.733222 
L 234.386225 188.211799 
L 234.977483 187.729965 
L 235.568742 187.878347 
L 236.16 194.192386 
L 236.751258 190.124855 
L 237.342517 192.460126 
L 237.933775 187.162848 
L 238.525033 184.64538 
L 239.116291 186.391466 
L 239.70755 186.180582 
L 240.298808 189.108967 
L 240.890066 190.46855 
L 241.481325 190.190768 
L 242.072583 190.111323 
L 242.663841 189.219647 
L 243.255099 190.891506 
L 243.846358 191.529195 
L 244.437616 191.516151 
L 245.620132 189.844007 
L 246.211391 191.450116 
L 246.802649 190.523134 
L 247.393907 189.921503 
L 247.985166 191.113669 
L 248.576424 189.625469 
L 249.167682 188.770155 
L 249.75894 190.048791 
L 250.350199 189.103861 
L 250.941457 189.604364 
L 251.532715 188.807745 
L 252.123974 189.193091 
L 252.715232 188.436916 
L 253.30649 190.20365 
L 253.897748 190.60337 
L 254.489007 188.277469 
L 255.080265 189.409062 
L 255.671523 190.184525 
L 256.262781 188.782621 
L 256.85404 189.237636 
L 257.445298 188.794285 
L 258.036556 188.549089 
L 258.627815 189.481898 
L 259.219073 189.991436 
L 259.810331 189.478903 
L 260.401589 190.367696 
L 262.175364 188.614392 
L 262.766623 189.478538 
L 263.357881 188.75643 
L 263.949139 189.385998 
L 264.540397 190.775131 
L 265.131656 189.681352 
L 265.722914 189.07292 
L 266.314172 189.776582 
L 266.90543 188.149368 
L 267.496689 189.749711 
L 268.087947 189.012052 
L 268.679205 189.033725 
L 269.270464 189.816964 
L 269.861722 190.106532 
L 270.45298 188.305496 
L 271.044238 189.574001 
L 272.226755 189.553191 
L 272.818013 189.22047 
L 273.409272 190.132722 
L 274.00053 189.586467 
L 274.591788 189.937857 
L 275.183046 190.788054 
L 275.774305 189.217241 
L 276.365563 189.371177 
L 276.956821 190.484427 
L 277.548079 189.788906 
L 278.139338 189.866046 
L 278.730596 190.594853 
L 279.321854 190.179693 
L 279.913113 188.796559 
L 280.504371 190.387278 
L 281.095629 189.443384 
L 282.278146 191.10969 
L 282.869404 189.859356 
L 284.051921 191.526921 
L 284.643179 190.543041 
L 285.234437 190.497938 
L 285.825695 191.059126 
L 286.416954 190.526342 
L 287.008212 191.023038 
L 287.59947 190.382355 
L 288.190728 189.454053 
L 288.781987 190.547822 
L 289.373245 190.420625 
L 289.964503 188.285407 
L 290.555762 189.584142 
L 291.738278 189.560946 
L 292.329536 190.548756 
L 292.920795 189.565535 
L 294.103311 189.111535 
L 294.69457 189.863802 
L 295.285828 189.383328 
L 295.877086 190.457363 
L 296.468344 189.74093 
L 297.059603 189.323201 
L 297.650861 188.369349 
L 298.242119 189.609704 
L 298.833377 190.235028 
L 299.424636 189.061702 
L 300.015894 189.808609 
L 300.607152 189.280241 
L 301.198411 189.468041 
L 301.789669 189.154019 
L 302.380927 189.868777 
L 302.972185 189.897414 
L 303.563444 189.626829 
L 304.154702 188.228031 
L 304.74596 189.979183 
L 305.337219 189.793738 
L 305.928477 187.165346 
L 306.519735 189.873446 
L 307.110993 189.35061 
L 307.702252 187.990703 
L 308.29351 187.488078 
L 308.884768 188.90396 
L 309.476026 188.918172 
L 310.067285 188.433454 
L 310.658543 188.496383 
L 311.249801 187.822555 
L 312.432318 190.02125 
L 313.023576 188.478161 
L 313.614834 188.623864 
L 314.206093 190.190412 
L 314.797351 188.395427 
L 315.388609 187.835945 
L 315.979868 189.108937 
L 316.571126 188.216246 
L 317.162384 188.983527 
L 317.753642 188.820607 
L 318.936159 189.048516 
L 319.527417 186.993574 
L 320.118675 188.730686 
L 320.709934 188.794681 
L 321.301192 189.297925 
L 321.89245 188.691401 
L 322.483709 188.993698 
L 323.074967 189.078239 
L 323.666225 187.506076 
L 324.257483 188.692517 
L 324.848742 189.049571 
L 325.44 189.173408 
L 326.622517 189.002246 
L 327.213775 186.504745 
L 328.396291 189.242275 
L 328.98755 187.845081 
L 329.578808 187.870815 
L 330.170066 189.228235 
L 330.761325 187.788345 
L 331.352583 187.898914 
L 331.943841 190.257828 
L 332.535099 189.89313 
L 333.126358 188.387489 
L 333.717616 188.398453 
L 334.308874 189.382861 
L 334.900132 188.808284 
L 335.491391 190.625642 
L 336.082649 189.129128 
L 336.673907 188.53509 
L 337.856424 189.747935 
L 338.447682 189.729886 
L 339.03894 187.998945 
L 339.630199 189.548399 
L 340.221457 189.882765 
L 340.812715 189.320948 
L 341.403974 187.239958 
L 341.995232 190.499217 
L 342.58649 188.688589 
L 343.177748 188.978248 
L 343.769007 190.814123 
L 344.360265 189.694711 
L 344.951523 188.269571 
L 345.542781 190.028011 
L 346.13404 189.798235 
L 346.725298 189.156151 
L 347.316556 189.065347 
L 347.907815 189.314532 
L 348.499073 190.098329 
L 349.090331 190.148853 
L 349.681589 189.421122 
L 350.272848 189.351006 
L 350.864106 188.967325 
L 351.455364 189.138041 
L 352.046623 188.826972 
L 352.637881 188.692172 
L 353.229139 189.601369 
L 353.820397 188.515812 
L 354.411656 189.042699 
L 355.002914 188.687076 
L 355.594172 188.537283 
L 356.18543 188.666895 
L 356.776689 189.751071 
L 357.367947 189.368406 
L 357.959205 188.256922 
L 358.550464 189.287184 
L 359.141722 189.430928 
L 360.324238 189.221089 
L 360.915497 188.75171 
L 362.098013 189.104846 
L 362.689272 189.280667 
L 363.28053 189.735428 
L 363.871788 188.826921 
L 364.463046 188.947418 
L 365.054305 189.816771 
L 365.645563 189.360589 
L 366.236821 187.234253 
L 367.419338 189.79459 
L 368.010596 188.715195 
L 368.601854 188.554266 
L 369.193113 188.585126 
L 369.784371 187.785279 
L 370.375629 188.237097 
L 370.966887 189.02734 
L 371.558146 187.783767 
L 372.149404 187.442458 
L 372.740662 189.370923 
L 373.331921 188.833936 
L 373.923179 188.968736 
L 374.514437 188.156241 
L 375.105695 188.460335 
L 375.696954 188.943845 
L 376.288212 188.7155 
L 378.653245 189.201344 
L 379.244503 189.443282 
L 379.835762 188.986826 
L 380.42702 189.018092 
L 381.018278 190.841623 
L 381.609536 190.347038 
L 382.200795 188.109555 
L 382.792053 189.761071 
L 383.383311 188.945347 
L 383.97457 188.970807 
L 384.565828 188.717073 
L 385.157086 189.149217 
L 385.748344 189.331069 
L 386.339603 189.827735 
L 386.930861 189.26808 
L 387.522119 190.331039 
L 388.113377 189.610424 
L 388.704636 189.472335 
L 389.295894 189.589269 
L 389.887152 189.862077 
L 390.478411 189.161693 
L 391.069669 189.933684 
L 391.660927 189.547882 
L 392.252185 189.660927 
L 392.843444 189.919848 
L 393.434702 189.42236 
L 394.02596 188.757791 
L 394.617219 189.49078 
L 395.208477 188.990237 
L 395.799735 189.487918 
L 396.390993 189.104927 
L 396.982252 189.867406 
L 397.57351 189.938608 
L 398.756026 188.884338 
L 399.347285 189.716242 
L 399.938543 189.095161 
L 400.529801 190.150487 
L 401.12106 189.606465 
L 402.303576 190.33709 
L 402.894834 189.595248 
L 403.486093 189.483461 
L 404.077351 190.237302 
L 404.668609 190.55375 
L 405.259868 189.614414 
L 405.851126 189.00854 
L 406.442384 190.657264 
L 407.033642 189.250579 
L 407.624901 189.81807 
L 408.216159 190.206543 
L 408.807417 189.764289 
L 409.398675 189.059235 
L 409.989934 188.981141 
L 410.581192 190.161572 
L 411.17245 190.515256 
L 411.763709 189.268953 
L 412.354967 188.62294 
L 412.946225 189.193041 
L 413.537483 195.798241 
L 413.537483 195.798241 
" style="fill:none;stroke:#0000ff;stroke-linecap:square;stroke-width:0.5;"/>
   </g>
   <g id="line2d_17">
    <path clip-path="url(#p76f856b819)" d="M 58.191258 174.255872 
L 58.782517 168.384626 
L 59.373775 166.271254 
L 59.965033 169.892855 
L 60.556291 169.43848 
L 61.14755 172.238745 
L 61.738808 172.653753 
L 62.330066 170.251249 
L 62.921325 168.626482 
L 63.512583 172.845492 
L 64.103841 170.878553 
L 64.695099 169.707268 
L 65.286358 172.545093 
L 65.877616 171.333081 
L 66.468874 169.123189 
L 67.060132 171.009577 
L 67.651391 171.471525 
L 68.242649 169.78052 
L 68.833907 171.725076 
L 69.425166 171.962597 
L 70.016424 170.793759 
L 70.607682 172.544748 
L 71.19894 171.251707 
L 71.790199 170.801291 
L 72.381457 172.830113 
L 72.972715 172.130247 
L 73.563974 171.777741 
L 74.155232 174.161444 
L 74.74649 173.716053 
L 75.337748 172.095489 
L 75.929007 173.012959 
L 76.520265 172.806968 
L 77.111523 172.260438 
L 77.702781 172.93321 
L 78.29404 172.027109 
L 78.885298 172.754109 
L 79.476556 173.744274 
L 80.067815 172.53014 
L 80.659073 172.02582 
L 81.250331 175.21069 
L 81.841589 172.697475 
L 82.432848 172.136561 
L 83.024106 174.274916 
L 83.615364 173.094485 
L 84.206623 172.58847 
L 84.797881 174.383049 
L 85.389139 173.426962 
L 85.980397 172.908623 
L 86.571656 174.663866 
L 87.162914 172.703028 
L 87.754172 172.175482 
L 88.34543 174.273404 
L 89.527947 172.890118 
L 90.119205 174.046318 
L 90.710464 173.110504 
L 91.301722 173.139131 
L 91.89298 174.746975 
L 92.484238 173.296152 
L 93.075497 173.783641 
L 93.666755 176.040574 
L 94.258013 174.773957 
L 94.849272 173.197105 
L 95.44053 174.837749 
L 96.031788 173.829089 
L 96.623046 174.157678 
L 97.805563 174.559753 
L 98.988079 176.575348 
L 99.579338 173.926257 
L 100.170596 174.605059 
L 100.761854 176.003765 
L 101.353113 174.993694 
L 101.944371 175.1034 
L 102.535629 176.17242 
L 103.126887 174.499383 
L 103.718146 174.08066 
L 104.309404 175.742378 
L 104.900662 174.693112 
L 105.491921 174.676758 
L 106.083179 176.504634 
L 106.674437 175.694636 
L 107.265695 175.322009 
L 107.856954 176.722543 
L 108.448212 174.978203 
L 109.03947 174.247792 
L 109.630728 175.291779 
L 110.221987 175.19062 
L 110.813245 173.782534 
L 111.404503 175.019133 
L 111.995762 175.124149 
L 112.58702 173.983531 
L 113.178278 174.737067 
L 113.769536 174.021701 
L 114.360795 173.0935 
L 114.952053 174.835688 
L 115.543311 174.158947 
L 116.13457 173.88751 
L 116.725828 175.500531 
L 117.908344 173.745634 
L 118.499603 176.498837 
L 119.090861 174.34695 
L 119.682119 174.236402 
L 120.273377 176.373204 
L 120.864636 175.296286 
L 121.455894 173.896148 
L 122.047152 175.954846 
L 122.638411 174.753939 
L 123.229669 174.324262 
L 123.820927 176.961719 
L 124.412185 175.284795 
L 125.003444 174.607191 
L 125.594702 176.810799 
L 126.18596 176.197342 
L 126.777219 175.840937 
L 127.368477 177.134546 
L 128.550993 175.560364 
L 129.142252 176.635881 
L 129.73351 175.635646 
L 130.324768 175.868102 
L 130.916026 176.230993 
L 131.507285 176.391943 
L 132.098543 175.917326 
L 132.689801 176.989747 
L 133.28106 175.605385 
L 133.872318 176.633566 
L 134.463576 177.174116 
L 135.054834 174.61718 
L 135.646093 175.992964 
L 136.237351 176.789684 
L 136.828609 176.019632 
L 137.419868 175.833486 
L 138.011126 177.080663 
L 138.602384 176.340222 
L 139.193642 176.013206 
L 139.784901 176.914333 
L 140.967417 175.543827 
L 141.558675 177.511121 
L 142.741192 175.074885 
L 143.33245 176.578241 
L 143.923709 176.773482 
L 144.514967 175.501942 
L 145.106225 176.474098 
L 145.697483 176.844725 
L 146.288742 175.263578 
L 146.88 176.301677 
L 147.471258 175.842775 
L 148.062517 175.192001 
L 148.653775 175.227226 
L 149.245033 176.081606 
L 149.836291 176.465622 
L 150.42755 176.614837 
L 151.018808 175.768822 
L 151.610066 176.20934 
L 152.201325 176.45343 
L 152.792583 176.939275 
L 153.383841 176.083464 
L 153.975099 176.83505 
L 154.566358 175.626195 
L 155.157616 176.181516 
L 155.748874 177.048453 
L 156.340132 176.77199 
L 156.931391 176.082184 
L 157.522649 177.958583 
L 158.113907 176.207574 
L 158.705166 176.650174 
L 159.296424 177.314469 
L 159.887682 177.322336 
L 160.47894 175.784343 
L 161.070199 177.816941 
L 162.252715 176.979109 
L 162.843974 177.393031 
L 163.435232 177.10263 
L 164.02649 176.195179 
L 164.617748 178.292371 
L 165.209007 177.463227 
L 165.800265 177.323981 
L 166.391523 178.675341 
L 167.57404 176.82896 
L 168.165298 178.01001 
L 168.756556 177.171781 
L 169.347815 176.122465 
L 169.939073 177.493387 
L 171.121589 176.22806 
L 171.712848 177.435808 
L 172.304106 177.275214 
L 172.895364 177.434499 
L 173.486623 176.944827 
L 174.077881 176.907765 
L 174.669139 177.240466 
L 175.260397 178.996926 
L 175.851656 176.491082 
L 176.442914 175.873026 
L 177.034172 177.834473 
L 177.62543 177.783483 
L 178.216689 176.927611 
L 178.807947 178.055224 
L 179.399205 177.929266 
L 179.990464 177.190622 
L 180.581722 177.668701 
L 181.17298 176.079535 
L 181.764238 175.766436 
L 182.355497 178.072614 
L 182.946755 176.99064 
L 183.538013 176.222172 
L 184.129272 176.469825 
L 184.72053 175.691205 
L 185.311788 176.053649 
L 185.903046 177.678802 
L 186.494305 176.555238 
L 187.085563 175.673612 
L 187.676821 177.29109 
L 188.268079 176.545929 
L 188.859338 176.118323 
L 189.450596 176.697327 
L 190.041854 176.63117 
L 190.633113 177.340081 
L 191.224371 178.565168 
L 191.815629 177.516918 
L 192.406887 177.024333 
L 192.998146 177.63509 
L 193.589404 177.019947 
L 194.180662 177.808353 
L 194.771921 178.032993 
L 195.363179 177.949082 
L 195.954437 177.635689 
L 196.545695 178.538389 
L 197.728212 176.41049 
L 198.31947 177.428702 
L 198.910728 176.404003 
L 199.501987 176.581043 
L 200.093245 177.162666 
L 200.684503 176.711234 
L 201.275762 176.487021 
L 201.86702 177.96371 
L 202.458278 176.723101 
L 203.049536 176.224862 
L 203.640795 176.785187 
L 204.232053 175.57958 
L 204.823311 176.792405 
L 205.41457 177.20723 
L 206.005828 176.178338 
L 206.597086 176.782284 
L 207.188344 177.120202 
L 207.779603 176.081342 
L 208.962119 177.018161 
L 209.553377 175.986234 
L 210.144636 177.025653 
L 210.735894 176.70088 
L 211.918411 176.255245 
L 212.509669 177.277508 
L 213.100927 176.437716 
L 213.692185 176.44872 
L 214.283444 177.365622 
L 214.874702 176.943254 
L 215.46596 175.667927 
L 216.057219 176.704687 
L 216.648477 175.756691 
L 217.239735 175.535736 
L 217.830993 176.35887 
L 218.422252 176.011978 
L 219.01351 176.59227 
L 219.604768 176.422611 
L 220.196026 175.867331 
L 220.787285 176.653341 
L 221.378543 176.630216 
L 221.969801 176.369113 
L 222.56106 176.428102 
L 223.152318 176.94836 
L 223.743576 176.044178 
L 224.334834 176.176612 
L 224.926093 177.149733 
L 225.517351 175.733647 
L 226.108609 175.586047 
L 226.699868 176.460211 
L 227.291126 175.49911 
L 228.473642 176.215066 
L 229.064901 174.466706 
L 229.656159 175.532701 
L 230.247417 174.986375 
L 231.429934 175.547015 
L 232.021192 176.549959 
L 232.61245 174.857067 
L 233.203709 174.525472 
L 233.794967 176.236211 
L 234.386225 176.92155 
L 234.977483 175.636611 
L 235.568742 179.25469 
L 236.16 150.305224 
L 236.751258 154.606531 
L 237.342517 153.486875 
L 237.933775 152.988382 
L 238.525033 150.231413 
L 239.116291 154.145923 
L 239.70755 150.508678 
L 240.298808 148.935378 
L 240.890066 146.730197 
L 241.481325 149.136669 
L 242.663841 148.101281 
L 243.255099 149.022913 
L 243.846358 147.941894 
L 244.437616 147.353765 
L 245.028874 147.771899 
L 245.620132 148.327859 
L 246.211391 147.741628 
L 246.802649 148.189689 
L 247.393907 148.404939 
L 247.985166 147.560375 
L 248.576424 148.959305 
L 249.75894 148.822515 
L 250.350199 150.043684 
L 250.941457 149.609733 
L 251.532715 150.589838 
L 252.123974 151.052842 
L 252.715232 150.804854 
L 253.30649 149.324023 
L 253.897748 148.995007 
L 254.489007 149.88178 
L 255.080265 149.696446 
L 255.671523 149.210683 
L 256.262781 149.883333 
L 256.85404 149.56926 
L 257.445298 150.286606 
L 258.036556 149.299629 
L 258.627815 149.432064 
L 259.219073 150.518606 
L 259.810331 149.903544 
L 260.401589 149.032791 
L 260.992848 149.737204 
L 261.584106 149.538217 
L 262.175364 149.104175 
L 262.766623 149.104073 
L 263.357881 150.1427 
L 263.949139 150.190859 
L 265.131656 148.725854 
L 266.90543 149.581056 
L 267.496689 148.849782 
L 268.087947 149.21045 
L 268.679205 148.356466 
L 269.270464 148.681634 
L 269.861722 149.270272 
L 270.45298 148.571106 
L 271.635497 149.678732 
L 272.818013 147.748257 
L 273.409272 148.078846 
L 274.00053 147.486128 
L 274.591788 148.361968 
L 275.183046 147.591307 
L 275.774305 147.745912 
L 276.365563 147.513293 
L 276.956821 147.723061 
L 277.548079 147.044148 
L 278.139338 148.508686 
L 278.730596 148.477836 
L 279.321854 147.06103 
L 280.504371 149.385916 
L 281.095629 148.270504 
L 282.278146 147.455116 
L 282.869404 148.233644 
L 283.460662 147.92017 
L 284.051921 147.852156 
L 284.643179 147.504979 
L 285.234437 147.72232 
L 285.825695 147.755505 
L 286.416954 148.071649 
L 287.008212 148.15418 
L 287.59947 147.659717 
L 288.190728 147.856481 
L 288.781987 147.40847 
L 289.373245 146.689317 
L 289.964503 147.340608 
L 290.555762 146.979829 
L 291.14702 146.434792 
L 291.738278 147.001258 
L 292.329536 146.2469 
L 292.920795 145.864539 
L 293.512053 145.337916 
L 294.103311 146.15972 
L 294.69457 147.30984 
L 295.285828 147.147194 
L 295.877086 146.495761 
L 296.468344 147.580962 
L 297.059603 147.332985 
L 297.650861 148.060858 
L 298.242119 147.660722 
L 298.833377 146.148899 
L 299.424636 147.269782 
L 300.015894 146.322315 
L 300.607152 146.936391 
L 301.198411 146.228932 
L 301.789669 147.645434 
L 302.380927 146.465449 
L 302.972185 146.744013 
L 303.563444 146.811387 
L 304.154702 147.218609 
L 304.74596 146.972875 
L 305.337219 146.147153 
L 305.928477 146.399323 
L 306.519735 146.447826 
L 307.110993 146.938675 
L 307.702252 147.045122 
L 308.29351 148.07038 
L 308.884768 146.186327 
L 309.476026 146.472971 
L 310.067285 147.465541 
L 310.658543 147.338649 
L 311.249801 147.023226 
L 311.84106 148.050067 
L 312.432318 146.519667 
L 313.023576 145.388785 
L 313.614834 147.383833 
L 314.206093 146.516368 
L 314.797351 147.354252 
L 315.388609 147.49763 
L 315.979868 147.467369 
L 316.571126 147.033499 
L 317.162384 146.808707 
L 317.753642 146.87598 
L 318.344901 147.327381 
L 318.936159 146.650508 
L 319.527417 148.386331 
L 320.118675 146.413169 
L 320.709934 146.165547 
L 321.301192 147.252687 
L 322.483709 146.245875 
L 323.074967 147.062593 
L 323.666225 148.434895 
L 324.257483 147.526287 
L 324.848742 147.603275 
L 325.44 146.859728 
L 326.031258 146.466596 
L 326.622517 147.036281 
L 327.213775 148.606687 
L 327.805033 148.572852 
L 328.396291 147.359713 
L 328.98755 147.730786 
L 329.578808 147.836959 
L 330.170066 147.730492 
L 330.761325 148.830281 
L 331.352583 147.186947 
L 331.943841 146.617821 
L 332.535099 146.685571 
L 333.126358 146.951415 
L 333.717616 146.957242 
L 334.308874 147.406217 
L 334.900132 146.816503 
L 335.491391 147.091646 
L 336.082649 147.050198 
L 336.673907 148.010781 
L 337.265166 146.549533 
L 337.856424 147.694455 
L 338.447682 146.965302 
L 339.03894 148.236517 
L 339.630199 147.201393 
L 340.221457 147.480332 
L 340.812715 146.737292 
L 341.403974 146.818524 
L 341.995232 145.738692 
L 342.58649 147.651149 
L 343.177748 147.764469 
L 343.769007 147.649484 
L 344.360265 146.827721 
L 344.951523 147.610117 
L 346.13404 146.241307 
L 346.725298 146.516652 
L 347.316556 146.646793 
L 347.907815 145.639077 
L 348.499073 146.242281 
L 349.090331 145.806767 
L 350.272848 147.475987 
L 350.864106 147.127237 
L 351.455364 146.305057 
L 352.046623 147.45138 
L 352.637881 147.849527 
L 353.820397 147.176684 
L 354.411656 146.992873 
L 355.002914 148.967324 
L 355.594172 148.850746 
L 356.18543 148.498067 
L 356.776689 147.330437 
L 357.367947 148.84366 
L 357.959205 148.578486 
L 358.550464 147.233572 
L 359.141722 147.006913 
L 359.73298 147.695886 
L 360.324238 148.114356 
L 360.915497 147.965831 
L 361.506755 147.486808 
L 362.098013 147.489387 
L 362.689272 146.660051 
L 363.28053 147.868155 
L 363.871788 148.053356 
L 364.463046 147.127886 
L 365.054305 146.956267 
L 366.236821 147.538164 
L 366.828079 148.19509 
L 368.010596 147.919206 
L 368.601854 148.695278 
L 369.193113 150.29896 
L 370.375629 149.396341 
L 370.966887 148.999525 
L 371.558146 149.866634 
L 372.149404 150.149796 
L 372.740662 149.419456 
L 373.923179 149.381916 
L 374.514437 150.002246 
L 375.105695 149.624402 
L 375.696954 149.472345 
L 376.288212 149.804162 
L 376.87947 149.397834 
L 377.470728 148.774662 
L 378.061987 148.536724 
L 378.653245 150.602151 
L 379.244503 150.439943 
L 380.42702 148.741335 
L 381.018278 149.684894 
L 382.200795 149.203557 
L 382.792053 149.836819 
L 383.383311 152.506324 
L 383.97457 150.824669 
L 384.565828 151.540138 
L 385.157086 150.938629 
L 385.748344 150.119972 
L 386.339603 150.305569 
L 386.930861 150.936517 
L 387.522119 150.30898 
L 388.113377 151.012307 
L 388.704636 151.148041 
L 389.295894 151.695555 
L 389.887152 151.212147 
L 390.478411 151.948781 
L 391.069669 151.589311 
L 391.660927 152.523013 
L 392.252185 152.552868 
L 392.843444 151.338136 
L 393.434702 151.474387 
L 394.02596 152.038661 
L 394.617219 150.952983 
L 395.208477 150.953683 
L 395.799735 151.249595 
L 396.390993 150.91926 
L 396.982252 151.395328 
L 397.57351 150.880624 
L 398.164768 150.841267 
L 398.756026 151.219517 
L 399.347285 151.000085 
L 399.938543 151.731542 
L 400.529801 150.232885 
L 401.12106 150.380496 
L 401.712318 151.316696 
L 402.303576 151.886167 
L 402.894834 151.710518 
L 403.486093 151.306291 
L 404.077351 151.611745 
L 404.668609 150.95884 
L 405.259868 151.004572 
L 405.851126 152.184628 
L 406.442384 150.717725 
L 407.033642 153.861248 
L 407.624901 152.834407 
L 408.216159 151.242946 
L 408.807417 151.078453 
L 409.989934 152.629014 
L 410.581192 150.997466 
L 411.17245 151.223131 
L 411.763709 152.779904 
L 412.354967 152.882382 
L 412.946225 152.622832 
L 413.537483 155.282764 
L 413.537483 155.282764 
" style="fill:none;stroke:#000000;stroke-linecap:square;stroke-width:0.5;"/>
   </g>
   <g id="line2d_18">
    <path clip-path="url(#p76f856b819)" d="M 58.191258 307.584 
L 58.191258 41.472 
" style="fill:none;stroke:#800080;stroke-dasharray:1.295,0.56;stroke-dashoffset:0;stroke-width:0.35;"/>
   </g>
   <g id="line2d_19">
    <path clip-path="url(#p76f856b819)" d="M 236.16 307.584 
L 236.16 41.472 
" style="fill:none;stroke:#800080;stroke-dasharray:1.295,0.56;stroke-dashoffset:0;stroke-width:0.35;"/>
   </g>
   <g id="patch_3">
    <path d="M 57.6 307.584 
L 57.6 41.472 
" style="fill:none;stroke:#000000;stroke-linecap:square;stroke-linejoin:miter;stroke-width:0.8;"/>
   </g>
   <g id="patch_4">
    <path d="M 414.72 307.584 
L 414.72 41.472 
" style="fill:none;stroke:#000000;stroke-linecap:square;stroke-linejoin:miter;stroke-width:0.8;"/>
   </g>
   <g id="patch_5">
    <path d="M 57.6 307.584 
L 414.72 307.584 
" style="fill:none;stroke:#000000;stroke-linecap:square;stroke-linejoin:miter;stroke-width:0.8;"/>
   </g>
   <g id="patch_6">
    <path d="M 57.6 41.472 
L 414.72 41.472 
" style="fill:none;stroke:#000000;stroke-linecap:square;stroke-linejoin:miter;stroke-width:0.8;"/>
   </g>
   <g id="text_16">
    <!-- R1 -->
    <g style="fill:#800080;" transform="translate(58.191258 138.95547)scale(0.08 -0.08)">
     <defs>
      <path d="M 2841 2188 
Q 3044 2119 3236 1894 
Q 3428 1669 3622 1275 
L 4263 0 
L 3584 0 
L 2988 1197 
Q 2756 1666 2539 1819 
Q 2322 1972 1947 1972 
L 1259 1972 
L 1259 0 
L 628 0 
L 628 4666 
L 2053 4666 
Q 2853 4666 3247 4331 
Q 3641 3997 3641 3322 
Q 3641 2881 3436 2590 
Q 3231 2300 2841 2188 
z
M 1259 4147 
L 1259 2491 
L 2053 2491 
Q 2509 2491 2742 2702 
Q 2975 2913 2975 3322 
Q 2975 3731 2742 3939 
Q 2509 4147 2053 4147 
L 1259 4147 
z
" id="DejaVuSans-52" transform="scale(0.015625)"/>
     </defs>
     <use xlink:href="#DejaVuSans-52"/>
     <use x="69.482422" xlink:href="#DejaVuSans-31"/>
    </g>
   </g>
   <g id="text_17">
    <!-- R2 -->
    <g style="fill:#800080;" transform="translate(236.16 138.95547)scale(0.08 -0.08)">
     <use xlink:href="#DejaVuSans-52"/>
     <use x="69.482422" xlink:href="#DejaVuSans-32"/>
    </g>
   </g>
   <g id="text_18">
    <!-- 000000000-A52TT All Lanes All Bases -->
    <g transform="translate(141.800625 35.472)scale(0.1 -0.1)">
     <defs>
      <path d="M 313 2009 
L 1997 2009 
L 1997 1497 
L 313 1497 
L 313 2009 
z
" id="DejaVuSans-2d" transform="scale(0.015625)"/>
      <path d="M 2188 4044 
L 1331 1722 
L 3047 1722 
L 2188 4044 
z
M 1831 4666 
L 2547 4666 
L 4325 0 
L 3669 0 
L 3244 1197 
L 1141 1197 
L 716 0 
L 50 0 
L 1831 4666 
z
" id="DejaVuSans-41" transform="scale(0.015625)"/>
      <path d="M -19 4666 
L 3928 4666 
L 3928 4134 
L 2272 4134 
L 2272 0 
L 1638 0 
L 1638 4134 
L -19 4134 
L -19 4666 
z
" id="DejaVuSans-54" transform="scale(0.015625)"/>
      <path d="M 628 4666 
L 1259 4666 
L 1259 531 
L 3531 531 
L 3531 0 
L 628 0 
L 628 4666 
z
" id="DejaVuSans-4c" transform="scale(0.015625)"/>
      <path d="M 3513 2113 
L 3513 0 
L 2938 0 
L 2938 2094 
Q 2938 2591 2744 2837 
Q 2550 3084 2163 3084 
Q 1697 3084 1428 2787 
Q 1159 2491 1159 1978 
L 1159 0 
L 581 0 
L 581 3500 
L 1159 3500 
L 1159 2956 
Q 1366 3272 1645 3428 
Q 1925 3584 2291 3584 
Q 2894 3584 3203 3211 
Q 3513 2838 3513 2113 
z
" id="DejaVuSans-6e" transform="scale(0.015625)"/>
     </defs>
     <use xlink:href="#DejaVuSans-30"/>
     <use x="63.623047" xlink:href="#DejaVuSans-30"/>
     <use x="127.246094" xlink:href="#DejaVuSans-30"/>
     <use x="190.869141" xlink:href="#DejaVuSans-30"/>
     <use x="254.492188" xlink:href="#DejaVuSans-30"/>
     <use x="318.115234" xlink:href="#DejaVuSans-30"/>
     <use x="381.738281" xlink:href="#DejaVuSans-30"/>
     <use x="445.361328" xlink:href="#DejaVuSans-30"/>
     <use x="508.984375" xlink:href="#DejaVuSans-30"/>
     <use x="572.607422" xlink:href="#DejaVuSans-2d"/>
     <use x="606.441406" xlink:href="#DejaVuSans-41"/>
     <use x="674.849609" xlink:href="#DejaVuSans-35"/>
     <use x="738.472656" xlink:href="#DejaVuSans-32"/>
     <use x="802.095703" xlink:href="#DejaVuSans-54"/>
     <use x="861.429688" xlink:href="#DejaVuSans-54"/>
     <use x="922.513672" xlink:href="#DejaVuSans-20"/>
     <use x="954.300781" xlink:href="#DejaVuSans-41"/>
     <use x="1022.708984" xlink:href="#DejaVuSans-6c"/>
     <use x="1050.492188" xlink:href="#DejaVuSans-6c"/>
     <use x="1078.275391" xlink:href="#DejaVuSans-20"/>
     <use x="1110.0625" xlink:href="#DejaVuSans-4c"/>
     <use x="1165.775391" xlink:href="#DejaVuSans-61"/>
     <use x="1227.054688" xlink:href="#DejaVuSans-6e"/>
     <use x="1290.433594" xlink:href="#DejaVuSans-65"/>
     <use x="1351.957031" xlink:href="#DejaVuSans-73"/>
     <use x="1404.056641" xlink:href="#DejaVuSans-20"/>
     <use x="1435.84375" xlink:href="#DejaVuSans-41"/>
     <use x="1504.251953" xlink:href="#DejaVuSans-6c"/>
     <use x="1532.035156" xlink:href="#DejaVuSans-6c"/>
     <use x="1559.818359" xlink:href="#DejaVuSans-20"/>
     <use x="1591.605469" xlink:href="#DejaVuSans-42"/>
     <use x="1660.208984" xlink:href="#DejaVuSans-61"/>
     <use x="1721.488281" xlink:href="#DejaVuSans-73"/>
     <use x="1773.587891" xlink:href="#DejaVuSans-65"/>
     <use x="1835.111328" xlink:href="#DejaVuSans-73"/>
    </g>
   </g>
   <g id="legend_1">
    <g id="patch_7">
     <path d="M 367.971563 108.1845 
L 407.72 108.1845 
Q 409.72 108.1845 409.72 106.1845 
L 409.72 48.472 
Q 409.72 46.472 407.72 46.472 
L 367.971563 46.472 
Q 365.971563 46.472 365.971563 48.472 
L 365.971563 106.1845 
Q 365.971563 108.1845 367.971563 108.1845 
z
" style="fill:#ffffff;opacity:0.8;stroke:#cccccc;stroke-linejoin:miter;"/>
    </g>
    <g id="line2d_20">
     <path d="M 369.971563 54.570438 
L 389.971563 54.570438 
" style="fill:none;stroke:#ff0000;stroke-linecap:square;stroke-width:0.5;"/>
    </g>
    <g id="line2d_21"/>
    <g id="text_19">
     <!-- A -->
     <g transform="translate(397.971563 58.070438)scale(0.1 -0.1)">
      <use xlink:href="#DejaVuSans-41"/>
     </g>
    </g>
    <g id="line2d_22">
     <path d="M 369.971563 69.248563 
L 389.971563 69.248563 
" style="fill:none;stroke:#008000;stroke-linecap:square;stroke-width:0.5;"/>
    </g>
    <g id="line2d_23"/>
    <g id="text_20">
     <!-- C -->
     <g transform="translate(397.971563 72.748563)scale(0.1 -0.1)">
      <use xlink:href="#DejaVuSans-43"/>
     </g>
    </g>
    <g id="line2d_24">
     <path d="M 369.971563 83.926688 
L 389.971563 83.926688 
" style="fill:none;stroke:#0000ff;stroke-linecap:square;stroke-width:0.5;"/>
    </g>
    <g id="line2d_25"/>
    <g id="text_21">
     <!-- G -->
     <g transform="translate(397.971563 87.426688)scale(0.1 -0.1)">
      <defs>
       <path d="M 3809 666 
L 3809 1919 
L 2778 1919 
L 2778 2438 
L 4434 2438 
L 4434 434 
Q 4069 175 3628 42 
Q 3188 -91 2688 -91 
Q 1594 -91 976 548 
Q 359 1188 359 2328 
Q 359 3472 976 4111 
Q 1594 4750 2688 4750 
Q 3144 4750 3555 4637 
Q 3966 4525 4313 4306 
L 4313 3634 
Q 3963 3931 3569 4081 
Q 3175 4231 2741 4231 
Q 1884 4231 1454 3753 
Q 1025 3275 1025 2328 
Q 1025 1384 1454 906 
Q 1884 428 2741 428 
Q 3075 428 3337 486 
Q 3600 544 3809 666 
z
" id="DejaVuSans-47" transform="scale(0.015625)"/>
      </defs>
      <use xlink:href="#DejaVuSans-47"/>
     </g>
    </g>
    <g id="line2d_26">
     <path d="M 369.971563 98.604813 
L 389.971563 98.604813 
" style="fill:none;stroke:#000000;stroke-linecap:square;stroke-width:0.5;"/>
    </g>
    <g id="line2d_27"/>
    <g id="text_22">
     <!-- T -->
     <g transform="translate(397.971563 102.104813)scale(0.1 -0.1)">
      <use xlink:href="#DejaVuSans-54"/>
     </g>
    </g>
   </g>
  </g>
 </g>
 <defs>
  <clipPath id="p76f856b819">
   <rect height="266.112" width="357.12" x="57.6" y="41.472"/>
  </clipPath>
 </defs>
</svg>
